<?xml version="1.0" encoding="UTF-8" standalone="no"?>
<!-- Created with Inkscape (http://www.inkscape.org/) -->

<svg
   xmlns:dc="http://purl.org/dc/elements/1.1/"
   xmlns:cc="http://creativecommons.org/ns#"
   xmlns:rdf="http://www.w3.org/1999/02/22-rdf-syntax-ns#"
   xmlns:svg="http://www.w3.org/2000/svg"
   xmlns="http://www.w3.org/2000/svg"
   xmlns:sodipodi="http://sodipodi.sourceforge.net/DTD/sodipodi-0.dtd"
   xmlns:inkscape="http://www.inkscape.org/namespaces/inkscape"
   width="119.84013mm"
   height="67.886078mm"
   viewBox="0 0 119.84013 67.886078"
   version="1.1"
   id="svg4972"
   sodipodi:docname="segmentacion.svg"
   inkscape:version="0.92.3 (2405546, 2018-03-11)">
  <defs
     id="defs4966" />
  <sodipodi:namedview
     id="base"
     pagecolor="#ffffff"
     bordercolor="#666666"
     borderopacity="1.0"
     inkscape:pageopacity="0.0"
     inkscape:pageshadow="2"
     inkscape:zoom="2.8"
     inkscape:cx="184.40997"
     inkscape:cy="133.90078"
     inkscape:document-units="mm"
     inkscape:current-layer="layer1"
     showgrid="false"
     inkscape:window-width="3840"
     inkscape:window-height="2049"
     inkscape:window-x="0"
     inkscape:window-y="55"
     inkscape:window-maximized="1"
     fit-margin-top="0"
     fit-margin-left="0"
     fit-margin-right="0"
     fit-margin-bottom="0" />
  <metadata
     id="metadata4969">
    <rdf:RDF>
      <cc:Work
         rdf:about="">
        <dc:format>image/svg+xml</dc:format>
        <dc:type
           rdf:resource="http://purl.org/dc/dcmitype/StillImage" />
        <dc:title></dc:title>
      </cc:Work>
    </rdf:RDF>
  </metadata>
  <g
     inkscape:label="Layer 1"
     inkscape:groupmode="layer"
     id="layer1"
     transform="translate(-44.390209,-69.319504)">
    <rect
       style="opacity:1;fill:#ffd54f;fill-opacity:1;stroke:none;stroke-width:0.15874998;stroke-linecap:butt;stroke-linejoin:miter;stroke-miterlimit:4;stroke-dasharray:0.15874999, 0.15874999000000001;stroke-dashoffset:0;stroke-opacity:1"
       id="rect3438"
       width="23.205313"
       height="9.8880148"
       x="77.901985"
       y="109.87018" />
    <g
       style="display:inline"
       transform="matrix(0.51537336,0,0,-0.51537336,-51.910257,394.72734)"
       inkscape:label="hojas_manual_intel_"
       id="g64778">
      <path
         id="path64874"
         style="fill:#ffffff;fill-opacity:1;fill-rule:nonzero;stroke:none"
         d="m 316.62,613.5 h 101.76 v 9.9 H 316.62 Z"
         inkscape:connector-curvature="0" />
      <path
         id="path64876"
         style="fill:#000000;fill-opacity:1;fill-rule:nonzero;stroke:none"
         d="m 316.62,623.16 h 102 v 0.47998 h -102 z"
         inkscape:connector-curvature="0" />
      <path
         id="path64878"
         style="fill:#000000;fill-opacity:1;fill-rule:nonzero;stroke:none"
         d="m 418.14,613.26 h 0.47998 V 623.4 H 418.14 Z"
         inkscape:connector-curvature="0" />
      <path
         id="path64880"
         style="fill:#000000;fill-opacity:1;fill-rule:nonzero;stroke:none"
         d="m 316.38,613.26 h 102 v 0.47998 h -102 z"
         inkscape:connector-curvature="0" />
      <path
         id="path64882"
         style="fill:#000000;fill-opacity:1;fill-rule:nonzero;stroke:none"
         d="m 316.38,613.5 h 0.48001 v 10.14 H 316.38 Z"
         inkscape:connector-curvature="0" />
      <text
         id="text64884"
         transform="matrix(1,0,0,-1,322.08,615.84)"
         style="line-height:0%">
        <tspan
           id="tspan64886"
           sodipodi:role="line"
           y="0"
           x="0 6.2116318 8.3127661 10.534398 14.52759 18.967663 21.189295 23.410927 26.071459 31.39731 33.498444 35.720078 40.160149 44.153339 46.374973 48.149723 52.142918 56.582989 58.804619 64.13047 68.570541 73.010612 75.710251 80.150322 84.143517 88.136703"
           style="font-variant:normal;font-weight:normal;font-stretch:normal;font-size:7.98000002px;line-height:1.25;font-family:Arial;-inkscape-font-specification:ArialMT;writing-mode:lr-tb;fill:#000000;fill-opacity:1;fill-rule:nonzero;stroke:none">Offset (Effective Address)</tspan>
        <tspan
           id="tspan64888"
           y="-9.7802877"
           x="93.180069"
           style="font-variant:normal;font-weight:normal;font-stretch:normal;font-size:7.98000002px;font-family:Arial;-inkscape-font-specification:ArialMT;writing-mode:lr-tb;fill:#000000;fill-opacity:1;fill-rule:nonzero;stroke:none">0</tspan>
      </text>
      <path
         id="path64890"
         style="fill:#000000;fill-opacity:1;fill-rule:nonzero;stroke:none"
         d="m 251.94,586.74 h 45.24 v 0.48004 h -45.24 z"
         inkscape:connector-curvature="0" />
      <path
         id="path64892"
         style="fill:#000000;fill-opacity:1;fill-rule:nonzero;stroke:none"
         d="m 296.7,525.24 h 0.47998 v 61.74 H 296.7 Z"
         inkscape:connector-curvature="0" />
      <path
         id="path64894"
         style="fill:#000000;fill-opacity:1;fill-rule:nonzero;stroke:none"
         d="m 251.7,525.24 h 45.24 v 0.47998 H 251.7 Z"
         inkscape:connector-curvature="0" />
      <path
         id="path64896"
         style="fill:#000000;fill-opacity:1;fill-rule:nonzero;stroke:none"
         d="m 251.7,525.48 h 0.48 v 61.74 h -0.48 z"
         inkscape:connector-curvature="0" />
      <path
         id="path64898"
         style="fill:#000000;fill-opacity:1;fill-rule:nonzero;stroke:none"
         d="m 360.24,549.18 h 11.82 v 0.47998 h -11.82 z"
         inkscape:connector-curvature="0" />
      <path
         id="path64900"
         style="fill:#000000;fill-opacity:1;fill-rule:nonzero;stroke:none"
         d="m 371.58,537.6 h 0.48001 v 11.82 H 371.58 Z"
         inkscape:connector-curvature="0" />
      <path
         id="path64902"
         style="fill:#000000;fill-opacity:1;fill-rule:nonzero;stroke:none"
         d="m 360,537.6 h 11.82 v 0.47998 H 360 Z"
         inkscape:connector-curvature="0" />
      <path
         id="path64904"
         style="fill:#000000;fill-opacity:1;fill-rule:nonzero;stroke:none"
         d="m 360,537.84 h 0.48001 v 11.82 H 360 Z"
         inkscape:connector-curvature="0" />
      <g
         transform="matrix(1,0,0,-1,300.42,547.08)"
         id="text64906">
        <path
           d="m 4.9017774,-1.5469043 c -4.9e-6,0.2779505 -0.054556,0.5156358 -0.1636524,0.71305664 C 4.6290188,-0.6390228 4.4822514,-0.4792671 4.2978223,-0.35458008 4.1133846,-0.23249 3.8990781,-0.14287095 3.6549024,-0.08572266 3.4107193,-0.02857419 3.1535515,0 2.8833984,0 H 0.65460938 V -5.4901465 H 2.6496094 c 0.3039228,5.5e-6 0.5753776,0.025982 0.8143652,0.07793 0.2389807,0.049361 0.4415977,0.1285893 0.6078516,0.2376855 0.1662457,0.1091067 0.2922319,0.2480811 0.377959,0.4169239 0.088316,0.1662546 0.1324759,0.3662739 0.1324804,0.6000586 -4.5e-6,0.1532657 -0.022085,0.2974355 -0.06624,0.4325097 -0.041567,0.1350817 -0.1065083,0.2584703 -0.1948242,0.370166 -0.085727,0.1091049 -0.1948284,0.2039192 -0.3273047,0.2844434 -0.1298867,0.077933 -0.2818494,0.1363799 -0.4558887,0.1753418 0.220797,0.025979 0.4156211,0.076634 0.5844727,0.1519629 0.171441,0.075335 0.3143119,0.1714479 0.4286133,0.2883398 0.1142922,0.1168969 0.2013136,0.2532737 0.2610644,0.4091309 0.059741,0.1532636 0.089614,0.3195134 0.089619,0.49875 M 3.8341406,-4.0679297 C 3.8341368,-4.3640581 3.7328283,-4.5757669 3.5302149,-4.7030567 3.3275943,-4.830337 3.0340595,-4.8939795 2.6496094,-4.8939844 H 1.3988379 v 1.737832 h 1.2507715 c 0.2182002,3.2e-6 0.4026336,-0.020778 0.5533008,-0.062344 0.1506607,-0.044157 0.2727504,-0.1052018 0.3662695,-0.1831348 0.093512,-0.080524 0.161051,-0.176637 0.2026172,-0.2883398 0.041559,-0.1116954 0.06234,-0.2376816 0.062344,-0.377959 m 0.3156153,2.4625781 C 4.1497517,-1.7793928 4.117281,-1.927459 4.0523438,-2.0495508 3.989996,-2.1716385 3.8990781,-2.2716481 3.7795899,-2.3495801 3.660094,-2.4275073 3.5159242,-2.4846557 3.3470801,-2.5210254 3.1808269,-2.55739 2.9937958,-2.5755736 2.7859863,-2.5755762 H 1.3988379 v 1.97941409 h 1.4455957 c 0.1896259,6e-7 0.3636687,-0.0155853 0.5221289,-0.0467578 0.1610512,-0.0311712 0.2987268,-0.0857219 0.4130274,-0.16365235 0.1168906,-0.0779288 0.2078085,-0.18183495 0.2727539,-0.31171874 0.064937,-0.1298816 0.097408,-0.2922349 0.097412,-0.4870606"
           style="font-variant:normal;font-weight:normal;font-stretch:normal;font-size:7.98000002px;font-family:Arial;-inkscape-font-specification:ArialMT;writing-mode:lr-tb;fill:#000000;fill-opacity:1;fill-rule:nonzero;stroke:none"
           id="path65224"
           inkscape:connector-curvature="0" />
        <path
           d="M 6.9437844,0.07792969 C 6.5203652,0.07792961 6.2021526,-0.0337695 5.9891457,-0.25716797 5.7761374,-0.48056593 5.6696336,-0.78708906 5.669634,-1.1767383 c -4e-7,-0.2779477 0.051953,-0.5052424 0.1558594,-0.6818848 0.1065033,-0.1792362 0.2441789,-0.3195095 0.4130273,-0.4208203 0.1714442,-0.1013062 0.3662683,-0.1714428 0.5844727,-0.2104101 0.2182014,-0.038962 0.4403008,-0.061042 0.6662988,-0.06624 l 0.9468457,-0.015586 v -0.2298926 c -3.1e-6,-0.17404 -0.018187,-0.3221062 -0.054551,-0.4441992 -0.03637,-0.1220865 -0.09222,-0.2207973 -0.1675488,-0.2961328 -0.075335,-0.075328 -0.1701492,-0.1298791 -0.2844434,-0.1636523 -0.1117017,-0.036364 -0.244182,-0.054547 -0.3974414,-0.054551 -0.1350802,3.7e-6 -0.2571699,0.010394 -0.3662695,0.031172 -0.1091033,0.018187 -0.2039177,0.053256 -0.2844434,0.1052051 -0.080529,0.049359 -0.1454701,0.1181969 -0.1948242,0.2065137 -0.049357,0.085726 -0.081827,0.1948274 -0.097412,0.3273047 l -0.7325391,-0.06624 c 0.025976,-0.1662466 0.075331,-0.3182094 0.1480664,-0.4558886 0.072734,-0.1402697 0.175341,-0.2610606 0.3078223,-0.3623731 0.135077,-0.1013045 0.3026257,-0.1792341 0.5026465,-0.233789 0.2026155,-0.057144 0.4467949,-0.085718 0.7325391,-0.085723 0.5299191,4.3e-6 0.9286589,0.122094 1.1962207,0.3662695 0.2675549,0.2415858 0.401334,0.592269 0.4013379,1.0520508 v 1.8157617 c -3.9e-6,0.2078134 0.027271,0.36497145 0.081826,0.47147466 0.054547,0.10390673 0.158453,0.15585981 0.3117188,0.15585937 0.038961,4.4e-7 0.077925,-0.002597 0.1168945,-0.007793 0.03896,-0.005195 0.076626,-0.011689 0.1129981,-0.0194824 v 0.43640625 C 9.6804109,-0.00259765 9.5920907,0.01298827 9.5037746,0.02337891 9.4180479,0.0337695 9.3258312,0.0389648 9.2271242,0.03896484 9.09464,0.0389648 8.9803432,0.02208006 8.8842336,-0.01168945 8.7907145,-0.04805659 8.7140837,-0.10130849 8.654341,-0.17144531 8.5945917,-0.24417944 8.5491327,-0.33249967 8.5179641,-0.43640625 8.486789,-0.54290961 8.4673066,-0.66629816 8.4595168,-0.80657227 h -0.023379 c -0.075335,0.1350788 -0.15846,0.25716852 -0.249375,0.36626953 -0.088323,0.1091019 -0.1922292,0.20261743 -0.3117188,0.28054688 C 7.7555495,-0.08442374 7.6191727,-0.02597654 7.4659133,0.01558594 7.3152472,0.05714838 7.1412044,0.07792961 6.9437844,0.07792969 M 7.1035402,-0.4480957 c 0.2233965,4.4e-7 0.4182205,-0.0402632 0.5844727,-0.12079102 0.1688451,-0.0831244 0.3078196,-0.18832932 0.4169238,-0.31561524 0.1116964,-0.12728414 0.1948213,-0.26625864 0.249375,-0.41692384 0.054548,-0.1506626 0.081823,-0.2948324 0.081826,-0.4325098 v -0.3467871 l -0.7676074,0.015586 c -0.1714475,0.0026 -0.3350997,0.015588 -0.4909571,0.038965 -0.1532634,0.020783 -0.2883414,0.063645 -0.4052343,0.128584 -0.1168959,0.064943 -0.2104114,0.1558611 -0.2805469,0.2727539 -0.06754,0.1168961 -0.1013097,0.2701576 -0.1013086,0.4597852 -1.1e-6,0.22859466 0.061044,0.4052351 0.1831348,0.52992185 0.1246861,0.12468801 0.3013265,0.18703169 0.5299218,0.18703125"
           style="font-variant:normal;font-weight:normal;font-stretch:normal;font-size:7.98000002px;font-family:Arial;-inkscape-font-specification:ArialMT;writing-mode:lr-tb;fill:#000000;fill-opacity:1;fill-rule:nonzero;stroke:none"
           id="path65226"
           inkscape:connector-curvature="0" />
        <path
           d="m 13.47716,-1.1650488 c -3e-6,0.19742281 -0.03897,0.37406326 -0.116894,0.52992185 -0.07534,0.1532622 -0.185736,0.28314488 -0.331201,0.38964843 -0.145472,0.1039064 -0.32471,0.18443366 -0.537715,0.24158204 -0.210413,0.05455073 -0.451995,0.08182609 -0.724746,0.08182617 -0.244182,-8e-8 -0.464982,-0.01948248 -0.662403,-0.05844727 -0.194825,-0.03636717 -0.36627,-0.0961132 -0.514335,-0.17923828 -0.148068,-0.0831248 -0.272755,-0.19222621 -0.374063,-0.32730469 -0.09871,-0.13767515 -0.171446,-0.30522382 -0.2182031,-0.50264648 L 10.617141,-1.110498 c 0.05974,0.22599693 0.183134,0.39224676 0.370166,0.49874995 0.18703,0.10390676 0.446795,0.15585983 0.779297,0.15585938 0.150662,4.5e-7 0.288337,-0.0103902 0.413027,-0.0311719 0.127283,-0.0207807 0.236384,-0.0558491 0.327305,-0.10520508 0.09092,-0.0519525 0.161052,-0.11949147 0.21041,-0.20261718 0.05195,-0.0857218 0.07793,-0.19092675 0.07793,-0.31561517 -3e-6,-0.127284 -0.02988,-0.2311901 -0.08962,-0.3117188 -0.05975,-0.083124 -0.142874,-0.1519613 -0.249375,-0.2065137 -0.106507,-0.054549 -0.23639,-0.1013068 -0.389649,-0.1402734 -0.150666,-0.041561 -0.316916,-0.08702 -0.49875,-0.136377 -0.168849,-0.044158 -0.336398,-0.093514 -0.502646,-0.1480664 -0.166251,-0.054549 -0.316915,-0.1259841 -0.451993,-0.2143066 -0.132481,-0.090916 -0.240283,-0.2026147 -0.323408,-0.3350977 -0.08312,-0.1324777 -0.124688,-0.2987275 -0.124687,-0.49875 -1e-6,-0.3844496 0.136376,-0.6766856 0.409131,-0.876709 0.27535,-0.202613 0.675389,-0.3039215 1.200117,-0.3039257 0.464978,4.2e-6 0.833845,0.08183 1.106601,0.2454785 0.275349,0.1636562 0.449391,0.4260192 0.522129,0.7870898 l -0.63123,0.07793 c -0.02338,-0.1090983 -0.06624,-0.2000161 -0.128584,-0.2727539 -0.06235,-0.075328 -0.137679,-0.1350745 -0.225996,-0.1792383 -0.08832,-0.046754 -0.188333,-0.079225 -0.30003,-0.097412 -0.109103,-0.020778 -0.2234,-0.031168 -0.34289,-0.031172 -0.316916,3.8e-6 -0.550705,0.04806 -0.701367,0.14417 -0.150666,0.096117 -0.225998,0.2415854 -0.225996,0.4364062 -2e-6,0.1142999 0.02727,0.2091143 0.08183,0.2844434 0.05715,0.072737 0.135077,0.1350808 0.233789,0.1870312 0.101307,0.049358 0.222098,0.093518 0.362373,0.1324805 0.140271,0.03637 0.294832,0.075334 0.463681,0.1168945 0.111697,0.028577 0.225994,0.059748 0.342891,0.093516 0.116892,0.031174 0.22989,0.070139 0.338994,0.1168946 0.111696,0.044162 0.215603,0.097414 0.311719,0.1597558 0.09871,0.059748 0.18443,0.1324825 0.257168,0.2182032 0.07273,0.085724 0.129879,0.1857341 0.171445,0.3000293 0.04416,0.1142983 0.06624,0.2467786 0.06624,0.3974414"
           style="font-variant:normal;font-weight:normal;font-stretch:normal;font-size:7.98000002px;font-family:Arial;-inkscape-font-specification:ArialMT;writing-mode:lr-tb;fill:#000000;fill-opacity:1;fill-rule:nonzero;stroke:none"
           id="path65228"
           inkscape:connector-curvature="0" />
        <path
           d="m 14.84891,-1.9599316 c -10e-7,0.2208025 0.02208,0.4247183 0.06624,0.611748 0.04676,0.1844348 0.116894,0.3441905 0.21041,0.47926758 0.09611,0.13248121 0.218202,0.23638735 0.36627,0.31171875 0.148065,0.0727349 0.326004,0.10910201 0.533818,0.10910157 0.303924,4.4e-7 0.546804,-0.0610444 0.728643,-0.18313477 0.18443,-0.12208909 0.309118,-0.27664948 0.374062,-0.46368163 l 0.615645,0.17534179 c -0.04416,0.11689533 -0.106508,0.23508857 -0.187031,0.35458007 -0.07793,0.11689498 -0.183139,0.22339878 -0.315615,0.31951172 -0.132484,0.0935158 -0.298734,0.17144539 -0.49875,0.23378907 -0.197425,0.05974604 -0.436409,0.08961906 -0.716954,0.08961914 -0.623439,-8e-8 -1.098809,-0.18573232 -1.426113,-0.55719727 -0.324707,-0.37146399 -0.487061,-0.92346542 -0.48706,-1.65600582 -10e-7,-0.3948413 0.04936,-0.7286398 0.148066,-1.0013965 0.09871,-0.2753482 0.233788,-0.4987464 0.405234,-0.6701953 0.171445,-0.1714414 0.371464,-0.2948299 0.600059,-0.3701661 0.228592,-0.077925 0.472771,-0.1168902 0.732539,-0.1168945 0.353279,4.3e-6 0.648112,0.057153 0.884502,0.1714453 0.238981,0.1143009 0.429909,0.2727578 0.572783,0.4753711 0.145465,0.200023 0.248072,0.4364095 0.307822,0.7091602 0.06234,0.2727565 0.09351,0.5675902 0.09352,0.8845019 v 0.093516 h -3.008086 m 2.28334,-0.5377149 c -0.03897,-0.4441963 -0.151966,-0.7676041 -0.338994,-0.9702246 -0.187034,-0.2052112 -0.455891,-0.3078185 -0.806572,-0.3078223 -0.116897,3.8e-6 -0.240286,0.019486 -0.370166,0.058447 -0.127287,0.036371 -0.245481,0.102611 -0.354581,0.1987207 -0.109102,0.096117 -0.201319,0.2272982 -0.27665,0.3935449 -0.07533,0.1636553 -0.118194,0.3727664 -0.128584,0.627334 h 2.275547"
           style="font-variant:normal;font-weight:normal;font-stretch:normal;font-size:7.98000002px;font-family:Arial;-inkscape-font-specification:ArialMT;writing-mode:lr-tb;fill:#000000;fill-opacity:1;fill-rule:nonzero;stroke:none"
           id="path65230"
           inkscape:connector-curvature="0" />
        <path
           d="M 24.987169,0 24.359835,-1.6053516 H 21.858292 L 21.227062,0 h -0.771504 l 2.240478,-5.4901465 h 0.845537 L 25.746984,0 h -0.759815 m -1.554697,-3.997793 c -0.04157,-0.1039021 -0.08183,-0.2091071 -0.120791,-0.3156152 -0.03637,-0.1064995 -0.06884,-0.2026127 -0.09741,-0.2883399 -0.02858,-0.088316 -0.05326,-0.1610499 -0.07403,-0.2182031 -0.01819,-0.059741 -0.02858,-0.096108 -0.03117,-0.1091015 -0.0052,0.012993 -0.01689,0.04936 -0.03507,0.1091015 -0.01819,0.059751 -0.04286,0.133784 -0.07403,0.2220996 -0.02858,0.088325 -0.06235,0.1857369 -0.101308,0.2922364 -0.03637,0.1065081 -0.07404,0.211713 -0.112998,0.3156152 l -0.701368,1.8040723 h 2.053448 L 23.432481,-3.997793"
           style="font-variant:normal;font-weight:normal;font-stretch:normal;font-size:7.98000002px;font-family:Arial;-inkscape-font-specification:ArialMT;writing-mode:lr-tb;fill:#000000;fill-opacity:1;fill-rule:nonzero;stroke:none"
           id="path65232"
           inkscape:connector-curvature="0" />
        <path
           d="m 28.969626,-0.67798828 c -0.129885,0.27015666 -0.302629,0.46368185 -0.518232,0.58057617 -0.21301,0.11689451 -0.477971,0.17534172 -0.794883,0.1753418 -0.532521,-8e-8 -0.924766,-0.17923818 -1.176738,-0.53771485 C 26.230397,-0.8182609 26.10571,-1.3611705 26.10571,-2.0885156 c 0,-1.4702699 0.516933,-2.2054059 1.550801,-2.2054102 0.31951,4.3e-6 0.585769,0.058452 0.798779,0.1753418 0.213005,0.1168985 0.384451,0.3026308 0.514336,0.5571973 h 0.0078 c -3e-6,-0.025973 -0.0013,-0.066237 -0.0039,-0.120791 -3e-6,-0.057145 -0.0013,-0.1155919 -0.0039,-0.1753418 -3e-6,-0.06234 -3e-6,-0.1207871 0,-0.1753418 -3e-6,-0.054547 -3e-6,-0.093511 0,-0.1168946 v -1.6326269 h 0.701368 v 4.91346678 c -4e-6,0.10130936 -4e-6,0.19872138 0,0.29223633 0.0026,0.0935161 0.0052,0.17923868 0.0078,0.25716797 0.0026,0.0779299 0.0052,0.14546892 0.0078,0.20261719 0.0026,0.05455084 0.0052,0.09351565 0.0078,0.11689453 h -0.670195 c -0.0052,-0.02597654 -0.01039,-0.06234369 -0.01559,-0.10910156 -0.0026,-0.0493553 -0.0065,-0.10520487 -0.01169,-0.16754883 -0.0026,-0.0623434 -0.0052,-0.12728475 -0.0078,-0.19482422 -0.0026,-0.0701362 -0.0039,-0.138974 -0.0039,-0.20651367 h -0.01559 m -2.12748,-1.43390622 c -10e-7,0.2909393 0.01818,0.540314 0.05455,0.748125 0.03637,0.2078136 0.09481,0.37925876 0.175342,0.5143359 0.08053,0.13248119 0.183133,0.2298932 0.307822,0.29223633 0.124686,0.0623442 0.276648,0.0935161 0.455888,0.0935156 0.184432,4.6e-7 0.346785,-0.0298726 0.487061,-0.0896191 0.142868,-0.0597455 0.261062,-0.15585867 0.35458,-0.28833985 0.09611,-0.13507715 0.168845,-0.31041878 0.218203,-0.52602538 0.04935,-0.2156039 0.07403,-0.4792658 0.07403,-0.7909863 -3e-6,-0.2987281 -0.02468,-0.5507005 -0.07403,-0.755918 -0.04936,-0.2078094 -0.122093,-0.3753581 -0.218203,-0.5026465 -0.09612,-0.1272816 -0.214309,-0.2181995 -0.35458,-0.2727539 -0.137678,-0.057145 -0.297434,-0.085719 -0.479268,-0.085723 -0.171447,3.8e-6 -0.319513,0.029877 -0.444199,0.089619 -0.124689,0.05975 -0.228595,0.1558629 -0.311719,0.2883398 -0.08313,0.1324838 -0.145469,0.3052277 -0.187031,0.5182324 -0.03897,0.2104129 -0.05845,0.4662818 -0.05845,0.7676075"
           style="font-variant:normal;font-weight:normal;font-stretch:normal;font-size:7.98000002px;font-family:Arial;-inkscape-font-specification:ArialMT;writing-mode:lr-tb;fill:#000000;fill-opacity:1;fill-rule:nonzero;stroke:none"
           id="path65234"
           inkscape:connector-curvature="0" />
        <path
           d="m 33.414485,-0.67798828 c -0.129886,0.27015666 -0.30263,0.46368185 -0.518232,0.58057617 -0.213011,0.11689451 -0.477971,0.17534172 -0.794883,0.1753418 -0.532521,-8e-8 -0.924767,-0.17923818 -1.176739,-0.53771485 -0.249375,-0.35847574 -0.374062,-0.90138534 -0.374062,-1.62873044 0,-1.4702699 0.516933,-2.2054059 1.550801,-2.2054102 0.319509,4.3e-6 0.585769,0.058452 0.798779,0.1753418 0.213005,0.1168985 0.38445,0.3026308 0.514336,0.5571973 h 0.0078 c -3e-6,-0.025973 -0.0013,-0.066237 -0.0039,-0.120791 -3e-6,-0.057145 -0.0013,-0.1155919 -0.0039,-0.1753418 -3e-6,-0.06234 -3e-6,-0.1207871 0,-0.1753418 -3e-6,-0.054547 -3e-6,-0.093511 0,-0.1168946 v -1.6326269 h 0.701367 v 4.91346678 c -4e-6,0.10130936 -4e-6,0.19872138 0,0.29223633 0.0026,0.0935161 0.0052,0.17923868 0.0078,0.25716797 0.0026,0.0779299 0.0052,0.14546892 0.0078,0.20261719 0.0026,0.05455084 0.0052,0.09351565 0.0078,0.11689453 h -0.670195 c -0.0052,-0.02597654 -0.01039,-0.06234369 -0.01559,-0.10910156 -0.0026,-0.0493553 -0.0065,-0.10520487 -0.01169,-0.16754883 -0.0026,-0.0623434 -0.0052,-0.12728475 -0.0078,-0.19482422 -0.0026,-0.0701362 -0.0039,-0.138974 -0.0039,-0.20651367 h -0.01559 M 31.287004,-2.1118945 c -1e-6,0.2909393 0.01818,0.540314 0.05455,0.748125 0.03637,0.2078136 0.09481,0.37925876 0.175342,0.5143359 0.08053,0.13248119 0.183133,0.2298932 0.307822,0.29223633 0.124686,0.0623442 0.276649,0.0935161 0.455889,0.0935156 0.184431,4.6e-7 0.346785,-0.0298726 0.487061,-0.0896191 0.142868,-0.0597455 0.261061,-0.15585867 0.35458,-0.28833985 0.09611,-0.13507715 0.168844,-0.31041878 0.218203,-0.52602538 0.04935,-0.2156039 0.07403,-0.4792658 0.07403,-0.7909863 -3e-6,-0.2987281 -0.02468,-0.5507005 -0.07403,-0.755918 -0.04936,-0.2078094 -0.122093,-0.3753581 -0.218203,-0.5026465 -0.09612,-0.1272816 -0.21431,-0.2181995 -0.35458,-0.2727539 -0.137679,-0.057145 -0.297434,-0.085719 -0.479268,-0.085723 -0.171447,3.8e-6 -0.319514,0.029877 -0.444199,0.089619 -0.124689,0.05975 -0.228595,0.1558629 -0.311719,0.2883398 -0.08313,0.1324838 -0.14547,0.3052277 -0.187031,0.5182324 -0.03897,0.2104129 -0.05845,0.4662818 -0.05845,0.7676075"
           style="font-variant:normal;font-weight:normal;font-stretch:normal;font-size:7.98000002px;font-family:Arial;-inkscape-font-specification:ArialMT;writing-mode:lr-tb;fill:#000000;fill-opacity:1;fill-rule:nonzero;stroke:none"
           id="path65236"
           inkscape:connector-curvature="0" />
        <path
           d="m 35.213633,0 v -3.234082 c -1e-6,-0.088317 -0.0013,-0.1779361 -0.0039,-0.2688575 -10e-7,-0.093512 -0.0013,-0.183131 -0.0039,-0.2688574 -0.0026,-0.085719 -0.0052,-0.166246 -0.0078,-0.241582 -0.0026,-0.075328 -0.0052,-0.142867 -0.0078,-0.2026172 h 0.662402 c 0.0026,0.05975 0.0052,0.1285881 0.0078,0.2065137 0.0052,0.075336 0.0091,0.1532655 0.01169,0.233789 0.0052,0.080531 0.0078,0.1584607 0.0078,0.2337891 0.0026,0.072738 0.0039,0.1350815 0.0039,0.1870312 h 0.01559 c 0.04935,-0.1610511 0.101307,-0.3000256 0.155859,-0.4169238 0.05715,-0.1194883 0.123387,-0.2169003 0.198721,-0.2922363 0.07533,-0.077926 0.164949,-0.1350739 0.268857,-0.1714453 0.103905,-0.038961 0.229891,-0.058443 0.377959,-0.058447 0.05715,4.3e-6 0.111697,0.0052 0.163653,0.015586 0.05195,0.0078 0.09221,0.01559 0.120791,0.023379 v 0.6429199 c -0.04676,-0.012985 -0.101311,-0.022076 -0.163653,-0.027275 -0.06235,-0.00779 -0.132482,-0.011686 -0.21041,-0.01169 -0.161057,3.7e-6 -0.298732,0.036371 -0.413027,0.1091016 -0.111701,0.072738 -0.203918,0.1740463 -0.276651,0.3039258 -0.07014,0.1272882 -0.122091,0.2805498 -0.155859,0.4597851 -0.03377,0.1766433 -0.05066,0.3701685 -0.05065,0.5805762 L 35.915,0 h -0.701367"
           style="font-variant:normal;font-weight:normal;font-stretch:normal;font-size:7.98000002px;font-family:Arial;-inkscape-font-specification:ArialMT;writing-mode:lr-tb;fill:#000000;fill-opacity:1;fill-rule:nonzero;stroke:none"
           id="path65238"
           inkscape:connector-curvature="0" />
        <path
           d="m 38.401083,-1.9599316 c -10e-7,0.2208025 0.02208,0.4247183 0.06624,0.611748 0.04676,0.1844348 0.116893,0.3441905 0.21041,0.47926758 0.09611,0.13248121 0.218202,0.23638735 0.36627,0.31171875 0.148064,0.0727349 0.326004,0.10910201 0.533818,0.10910157 0.303923,4.4e-7 0.546804,-0.0610444 0.728643,-0.18313477 0.18443,-0.12208909 0.309117,-0.27664948 0.374062,-0.46368163 l 0.615645,0.17534179 c -0.04416,0.11689533 -0.106508,0.23508857 -0.187032,0.35458007 -0.07793,0.11689498 -0.183138,0.22339878 -0.315615,0.31951172 -0.132484,0.0935158 -0.298733,0.17144539 -0.49875,0.23378907 -0.197424,0.05974604 -0.436409,0.08961906 -0.716953,0.08961914 -0.623439,-8e-8 -1.09881,-0.18573232 -1.426113,-0.55719727 C 37.827,-0.85073157 37.664647,-1.402733 37.664647,-2.1352734 c 0,-0.3948413 0.04935,-0.7286398 0.148067,-1.0013965 0.09871,-0.2753482 0.233788,-0.4987464 0.405234,-0.6701953 0.171444,-0.1714414 0.371464,-0.2948299 0.600059,-0.3701661 0.228592,-0.077925 0.472771,-0.1168902 0.732539,-0.1168945 0.353278,4.3e-6 0.648112,0.057153 0.884502,0.1714453 0.238981,0.1143009 0.429908,0.2727578 0.572783,0.4753711 0.145465,0.200023 0.248072,0.4364095 0.307822,0.7091602 0.06234,0.2727565 0.09351,0.5675902 0.09352,0.8845019 v 0.093516 h -3.008086 m 2.28334,-0.5377149 c -0.03897,-0.4441963 -0.151966,-0.7676041 -0.338995,-0.9702246 -0.187034,-0.2052112 -0.455891,-0.3078185 -0.806572,-0.3078223 -0.116896,3.8e-6 -0.240285,0.019486 -0.370166,0.058447 -0.127287,0.036371 -0.24548,0.102611 -0.35458,0.1987207 -0.109103,0.096117 -0.20132,0.2272982 -0.27665,0.3935449 -0.07533,0.1636553 -0.118195,0.3727664 -0.128584,0.627334 h 2.275547"
           style="font-variant:normal;font-weight:normal;font-stretch:normal;font-size:7.98000002px;font-family:Arial;-inkscape-font-specification:ArialMT;writing-mode:lr-tb;fill:#000000;fill-opacity:1;fill-rule:nonzero;stroke:none"
           id="path65240"
           inkscape:connector-curvature="0" />
        <path
           d="m 45.472172,-1.1650488 c -4e-6,0.19742281 -0.03897,0.37406326 -0.116895,0.52992185 -0.07534,0.1532622 -0.185736,0.28314488 -0.331201,0.38964843 -0.145472,0.1039064 -0.32471,0.18443366 -0.537715,0.24158204 -0.210412,0.05455073 -0.451994,0.08182609 -0.724746,0.08182617 -0.244181,-8e-8 -0.464982,-0.01948248 -0.662402,-0.05844727 -0.194826,-0.03636717 -0.366271,-0.0961132 -0.514336,-0.17923828 -0.148067,-0.0831248 -0.272755,-0.19222621 -0.374063,-0.32730469 -0.09871,-0.13767515 -0.171445,-0.30522382 -0.218203,-0.50264648 L 42.612152,-1.110498 c 0.05974,0.22599693 0.183134,0.39224676 0.370166,0.49874995 0.18703,0.10390676 0.446795,0.15585983 0.779297,0.15585938 0.150662,4.5e-7 0.288338,-0.0103902 0.413027,-0.0311719 0.127283,-0.0207807 0.236385,-0.0558491 0.327305,-0.10520508 0.09091,-0.0519525 0.161052,-0.11949147 0.21041,-0.20261718 0.05195,-0.0857218 0.07793,-0.19092675 0.07793,-0.31561517 -3e-6,-0.127284 -0.02988,-0.2311901 -0.08962,-0.3117188 -0.05975,-0.083124 -0.142874,-0.1519613 -0.249375,-0.2065137 -0.106507,-0.054549 -0.236389,-0.1013068 -0.389649,-0.1402734 -0.150666,-0.041561 -0.316916,-0.08702 -0.49875,-0.136377 -0.168849,-0.044158 -0.336397,-0.093514 -0.502646,-0.1480664 -0.166251,-0.054549 -0.316915,-0.1259841 -0.451992,-0.2143066 -0.132481,-0.090916 -0.240284,-0.2026147 -0.323408,-0.3350977 -0.08313,-0.1324777 -0.124688,-0.2987275 -0.124688,-0.49875 0,-0.3844496 0.136376,-0.6766856 0.409131,-0.876709 0.27535,-0.202613 0.675389,-0.3039215 1.200117,-0.3039257 0.464978,4.2e-6 0.833845,0.08183 1.106602,0.2454785 0.275348,0.1636562 0.449391,0.4260192 0.522129,0.7870898 l -0.631231,0.07793 c -0.02338,-0.1090983 -0.06624,-0.2000161 -0.128584,-0.2727539 -0.06235,-0.075328 -0.137678,-0.1350745 -0.225996,-0.1792383 -0.08832,-0.046754 -0.188332,-0.079225 -0.300029,-0.097412 -0.109104,-0.020778 -0.223401,-0.031168 -0.342891,-0.031172 -0.316916,3.8e-6 -0.550704,0.04806 -0.701367,0.14417 -0.150665,0.096117 -0.225997,0.2415854 -0.225996,0.4364062 -1e-6,0.1142999 0.02727,0.2091143 0.08183,0.2844434 0.05715,0.072737 0.135077,0.1350808 0.233789,0.1870312 0.101307,0.049358 0.222098,0.093518 0.362373,0.1324805 0.140272,0.03637 0.294832,0.075334 0.463682,0.1168945 0.111697,0.028577 0.225993,0.059748 0.34289,0.093516 0.116892,0.031174 0.22989,0.070139 0.338995,0.1168946 0.111696,0.044162 0.215602,0.097414 0.311718,0.1597558 0.09871,0.059748 0.18443,0.1324825 0.257168,0.2182032 0.07273,0.085724 0.129879,0.1857341 0.171446,0.3000293 0.04416,0.1142983 0.06624,0.2467786 0.06624,0.3974414"
           style="font-variant:normal;font-weight:normal;font-stretch:normal;font-size:7.98000002px;font-family:Arial;-inkscape-font-specification:ArialMT;writing-mode:lr-tb;fill:#000000;fill-opacity:1;fill-rule:nonzero;stroke:none"
           id="path65242"
           inkscape:connector-curvature="0" />
        <path
           d="m 49.470154,-1.1650488 c -4e-6,0.19742281 -0.03897,0.37406326 -0.116895,0.52992185 -0.07534,0.1532622 -0.185736,0.28314488 -0.331201,0.38964843 -0.145472,0.1039064 -0.32471,0.18443366 -0.537715,0.24158204 -0.210412,0.05455073 -0.451994,0.08182609 -0.724746,0.08182617 -0.244181,-8e-8 -0.464982,-0.01948248 -0.662402,-0.05844727 -0.194826,-0.03636717 -0.366271,-0.0961132 -0.514336,-0.17923828 -0.148067,-0.0831248 -0.272755,-0.19222621 -0.374063,-0.32730469 -0.09871,-0.13767515 -0.171445,-0.30522382 -0.218203,-0.50264648 L 46.610134,-1.110498 c 0.05974,0.22599693 0.183134,0.39224676 0.370166,0.49874995 0.18703,0.10390676 0.446796,0.15585983 0.779297,0.15585938 0.150662,4.5e-7 0.288338,-0.0103902 0.413028,-0.0311719 0.127282,-0.0207807 0.236384,-0.0558491 0.327304,-0.10520508 0.09091,-0.0519525 0.161052,-0.11949147 0.21041,-0.20261718 0.05195,-0.0857218 0.07793,-0.19092675 0.07793,-0.31561517 -3e-6,-0.127284 -0.02988,-0.2311901 -0.08962,-0.3117188 -0.05975,-0.083124 -0.142874,-0.1519613 -0.249375,-0.2065137 -0.106507,-0.054549 -0.236389,-0.1013068 -0.389649,-0.1402734 -0.150666,-0.041561 -0.316916,-0.08702 -0.49875,-0.136377 -0.168849,-0.044158 -0.336397,-0.093514 -0.502646,-0.1480664 -0.166251,-0.054549 -0.316915,-0.1259841 -0.451992,-0.2143066 -0.132481,-0.090916 -0.240284,-0.2026147 -0.323408,-0.3350977 -0.08313,-0.1324777 -0.124688,-0.2987275 -0.124688,-0.49875 0,-0.3844496 0.136377,-0.6766856 0.409131,-0.876709 0.27535,-0.202613 0.675389,-0.3039215 1.200117,-0.3039257 0.464978,4.2e-6 0.833845,0.08183 1.106602,0.2454785 0.275348,0.1636562 0.449391,0.4260192 0.522129,0.7870898 l -0.631231,0.07793 c -0.02338,-0.1090983 -0.06624,-0.2000161 -0.128584,-0.2727539 -0.06235,-0.075328 -0.137678,-0.1350745 -0.225996,-0.1792383 -0.08832,-0.046754 -0.188332,-0.079225 -0.300029,-0.097412 -0.109104,-0.020778 -0.223401,-0.031168 -0.342891,-0.031172 -0.316916,3.8e-6 -0.550704,0.04806 -0.701367,0.14417 -0.150665,0.096117 -0.225997,0.2415854 -0.225996,0.4364062 -1e-6,0.1142999 0.02727,0.2091143 0.08183,0.2844434 0.05715,0.072737 0.135077,0.1350808 0.233789,0.1870312 0.101307,0.049358 0.222098,0.093518 0.362373,0.1324805 0.140272,0.03637 0.294832,0.075334 0.463682,0.1168945 0.111697,0.028577 0.225993,0.059748 0.34289,0.093516 0.116892,0.031174 0.22989,0.070139 0.338995,0.1168946 0.111696,0.044162 0.215602,0.097414 0.311718,0.1597558 0.09871,0.059748 0.184431,0.1324825 0.257168,0.2182032 0.07273,0.085724 0.129879,0.1857341 0.171446,0.3000293 0.04416,0.1142983 0.06624,0.2467786 0.06624,0.3974414"
           style="font-variant:normal;font-weight:normal;font-stretch:normal;font-size:7.98000002px;font-family:Arial;-inkscape-font-specification:ArialMT;writing-mode:lr-tb;fill:#000000;fill-opacity:1;fill-rule:nonzero;stroke:none"
           id="path65244"
           inkscape:connector-curvature="0" />
        <path
           d="m -49.459112,-45.761903 c -5e-6,0.45719 -0.06884,0.861125 -0.206513,1.211806 -0.137681,0.348088 -0.326011,0.640324 -0.564991,0.876709 -0.238988,0.23379 -0.522133,0.411729 -0.849433,0.533819 -0.324711,0.119492 -0.675394,0.179238 -1.052051,0.179238 h -2.053447 v -5.490146 h 1.815762 c 0.423415,5e-6 0.813063,0.05326 1.168945,0.159755 0.358472,0.103912 0.666294,0.266265 0.923467,0.487061 0.257163,0.218208 0.457182,0.496157 0.600058,0.833848 0.145464,0.337699 0.218198,0.740335 0.218203,1.20791 m -0.748125,0 c -4e-6,-0.371462 -0.05326,-0.688376 -0.159755,-0.950742 -0.106509,-0.264957 -0.255874,-0.481861 -0.448096,-0.650713 -0.192231,-0.168843 -0.422123,-0.292232 -0.689678,-0.370166 -0.267562,-0.08052 -0.561096,-0.120786 -0.880605,-0.120791 h -1.055948 v 4.297822 h 1.223496 c 0.288337,1e-6 0.554597,-0.04676 0.79878,-0.140274 0.246773,-0.09351 0.459781,-0.232489 0.639023,-0.416923 0.179234,-0.184433 0.319508,-0.414325 0.42082,-0.689678 0.101304,-0.27535 0.151959,-0.594861 0.151963,-0.958535"
           style="font-variant:normal;font-weight:normal;font-stretch:normal;font-size:7.98000002px;font-family:Arial;-inkscape-font-specification:ArialMT;writing-mode:lr-tb;fill:#000000;fill-opacity:1;fill-rule:nonzero;stroke:none"
           id="path65246"
           inkscape:connector-curvature="0" />
        <path
           d="m -48.00556,-44.920263 c -10e-7,0.220803 0.02208,0.424719 0.06624,0.611748 0.04676,0.184435 0.116893,0.344191 0.21041,0.479268 0.09611,0.132481 0.218202,0.236387 0.36627,0.311719 0.148064,0.07274 0.326004,0.109102 0.533818,0.109101 0.303923,1e-6 0.546804,-0.06104 0.728643,-0.183134 0.18443,-0.12209 0.309118,-0.27665 0.374062,-0.463682 l 0.615645,0.175342 c -0.04416,0.116895 -0.106508,0.235088 -0.187032,0.35458 -0.07793,0.116895 -0.183138,0.223399 -0.315615,0.319512 -0.132484,0.09352 -0.298733,0.171445 -0.49875,0.233789 -0.197424,0.05975 -0.436409,0.08962 -0.716953,0.08962 -0.623439,0 -1.09881,-0.185733 -1.426113,-0.557198 -0.324708,-0.371464 -0.487061,-0.923465 -0.487061,-1.656005 0,-0.394842 0.04935,-0.72864 0.148067,-1.001397 0.09871,-0.275348 0.233788,-0.498746 0.405234,-0.670195 0.171444,-0.171442 0.371464,-0.29483 0.600059,-0.370166 0.228592,-0.07793 0.472771,-0.11689 0.732539,-0.116895 0.353278,5e-6 0.648112,0.05715 0.884502,0.171446 0.238981,0.1143 0.429908,0.272757 0.572783,0.475371 0.145465,0.200023 0.248072,0.436409 0.307822,0.70916 0.06234,0.272756 0.09351,0.56759 0.09352,0.884502 v 0.09352 h -3.008086 m 2.28334,-0.537714 c -0.03897,-0.444197 -0.151966,-0.767605 -0.338994,-0.970225 -0.187035,-0.205211 -0.455892,-0.307819 -0.806573,-0.307822 -0.116896,3e-6 -0.240285,0.01949 -0.370166,0.05845 -0.127287,0.03637 -0.24548,0.102611 -0.35458,0.198721 -0.109103,0.09612 -0.201319,0.227298 -0.27665,0.393545 -0.07533,0.163655 -0.118195,0.372766 -0.128584,0.627334 h 2.275547"
           style="font-variant:normal;font-weight:normal;font-stretch:normal;font-size:7.98000002px;font-family:Arial;-inkscape-font-specification:ArialMT;writing-mode:lr-tb;fill:#000000;fill-opacity:1;fill-rule:nonzero;stroke:none"
           id="path65248"
           inkscape:connector-curvature="0" />
        <path
           d="m -40.944843,-44.12538 c -4e-6,0.197423 -0.03897,0.374063 -0.116895,0.529922 -0.07534,0.153262 -0.185736,0.283145 -0.331201,0.389649 -0.145472,0.103906 -0.32471,0.184433 -0.537715,0.241582 -0.210412,0.05455 -0.451994,0.08183 -0.724746,0.08183 -0.244181,0 -0.464982,-0.01948 -0.662402,-0.05845 -0.194826,-0.03637 -0.366271,-0.09611 -0.514336,-0.179238 -0.148067,-0.08313 -0.272755,-0.192226 -0.374063,-0.327305 -0.09871,-0.137675 -0.171445,-0.305223 -0.218203,-0.502646 l 0.619541,-0.120791 c 0.05974,0.225997 0.183134,0.392247 0.370166,0.49875 0.18703,0.103907 0.446795,0.15586 0.779297,0.155859 0.150662,10e-7 0.288338,-0.01039 0.413027,-0.03117 0.127283,-0.02078 0.236384,-0.05585 0.327305,-0.105205 0.09091,-0.05195 0.161052,-0.119491 0.21041,-0.202617 0.05195,-0.08572 0.07793,-0.190927 0.07793,-0.315615 -3e-6,-0.127284 -0.02988,-0.23119 -0.08962,-0.311719 -0.05975,-0.08312 -0.142874,-0.151961 -0.249375,-0.206513 -0.106507,-0.05455 -0.236389,-0.101307 -0.389649,-0.140274 -0.150666,-0.04156 -0.316916,-0.08702 -0.49875,-0.136377 -0.168849,-0.04416 -0.336398,-0.09351 -0.502646,-0.148066 -0.166251,-0.05455 -0.316915,-0.125984 -0.451992,-0.214307 -0.132481,-0.09092 -0.240284,-0.202615 -0.323409,-0.335098 -0.08313,-0.132477 -0.124687,-0.298727 -0.124687,-0.49875 0,-0.384449 0.136376,-0.676685 0.409131,-0.876709 0.27535,-0.202613 0.675389,-0.303921 1.200117,-0.303925 0.464978,4e-6 0.833845,0.08183 1.106602,0.245478 0.275348,0.163656 0.449391,0.426019 0.522129,0.78709 l -0.631231,0.07793 c -0.02338,-0.109099 -0.06624,-0.200016 -0.128584,-0.272754 -0.06235,-0.07533 -0.137678,-0.135075 -0.225996,-0.179238 -0.08832,-0.04676 -0.188333,-0.07923 -0.300029,-0.09741 -0.109104,-0.02078 -0.223401,-0.03117 -0.342891,-0.03117 -0.316916,3e-6 -0.550705,0.04806 -0.701367,0.144169 -0.150665,0.09612 -0.225997,0.241586 -0.225996,0.436407 -1e-6,0.1143 0.02727,0.209114 0.08183,0.284443 0.05715,0.07274 0.135077,0.135081 0.233789,0.187031 0.101307,0.04936 0.222098,0.09352 0.362373,0.132481 0.140272,0.03637 0.294832,0.07533 0.463682,0.116894 0.111697,0.02858 0.225993,0.05975 0.34289,0.09352 0.116892,0.03117 0.22989,0.07014 0.338994,0.116895 0.111697,0.04416 0.215603,0.09741 0.311719,0.159755 0.09871,0.05975 0.18443,0.132483 0.257168,0.218204 0.07273,0.08572 0.129879,0.185734 0.171445,0.300029 0.04416,0.114298 0.06624,0.246778 0.06624,0.397441"
           style="font-variant:normal;font-weight:normal;font-stretch:normal;font-size:7.98000002px;font-family:Arial;-inkscape-font-specification:ArialMT;writing-mode:lr-tb;fill:#000000;fill-opacity:1;fill-rule:nonzero;stroke:none"
           id="path65250"
           inkscape:connector-curvature="0" />
        <path
           d="m -39.587364,-45.087811 c -10e-7,0.241583 0.01688,0.463683 0.05065,0.666298 0.03637,0.202619 0.09611,0.37796 0.179238,0.526026 0.08312,0.145469 0.192225,0.258467 0.327305,0.338994 0.137674,0.08053 0.306522,0.120791 0.506543,0.120791 0.249373,0 0.457185,-0.06754 0.623438,-0.202617 0.168844,-0.135078 0.27275,-0.34289 0.311718,-0.623438 l 0.70916,0.04676 c -0.02338,0.174044 -0.07404,0.341593 -0.151962,0.502647 -0.07793,0.161055 -0.184437,0.302627 -0.319512,0.424716 -0.132484,0.12209 -0.294837,0.220801 -0.487061,0.296133 -0.192229,0.07273 -0.414328,0.109102 -0.666299,0.109102 -0.329904,0 -0.61045,-0.05585 -0.84164,-0.167549 -0.231193,-0.111699 -0.419523,-0.264961 -0.56499,-0.459785 -0.142872,-0.197421 -0.246778,-0.428613 -0.311719,-0.693574 -0.06494,-0.267558 -0.09741,-0.557196 -0.09741,-0.868916 -1e-6,-0.283143 0.02338,-0.532517 0.07014,-0.748126 0.04676,-0.2182 0.111699,-0.407828 0.194825,-0.568886 0.08572,-0.163649 0.185731,-0.300026 0.300029,-0.409131 0.114296,-0.111695 0.237684,-0.200016 0.370166,-0.264961 0.135077,-0.06753 0.276649,-0.115592 0.424717,-0.14417 0.148064,-0.03117 0.297429,-0.04675 0.448095,-0.04676 0.236385,5e-6 0.446795,0.03248 0.631231,0.09741 0.184431,0.06495 0.342887,0.154565 0.475371,0.268858 0.135075,0.111703 0.244176,0.244183 0.327305,0.397441 0.08312,0.153265 0.141568,0.318216 0.175342,0.494854 l -0.72085,0.05455 c -0.03637,-0.233785 -0.128587,-0.419518 -0.27665,-0.557197 -0.148069,-0.137672 -0.358479,-0.20651 -0.631231,-0.206513 -0.200021,3e-6 -0.36757,0.03377 -0.502646,0.101308 -0.132482,0.06495 -0.240285,0.164955 -0.323409,0.300029 -0.08313,0.132484 -0.142872,0.300033 -0.179238,0.502647 -0.03377,0.20262 -0.05065,0.440305 -0.05065,0.713057"
           style="font-variant:normal;font-weight:normal;font-stretch:normal;font-size:7.98000002px;font-family:Arial;-inkscape-font-specification:ArialMT;writing-mode:lr-tb;fill:#000000;fill-opacity:1;fill-rule:nonzero;stroke:none"
           id="path65252"
           inkscape:connector-curvature="0" />
        <path
           d="m -36.117991,-42.960331 v -3.234082 c 0,-0.08832 -0.0013,-0.177936 -0.0039,-0.268857 -1e-6,-0.09351 -0.0013,-0.183132 -0.0039,-0.268858 -0.0026,-0.08572 -0.0052,-0.166246 -0.0078,-0.241582 -0.0026,-0.07533 -0.0052,-0.142867 -0.0078,-0.202617 h 0.662402 c 0.0026,0.05975 0.0052,0.128588 0.0078,0.206514 0.0052,0.07534 0.0091,0.153265 0.01169,0.233789 0.0052,0.08053 0.0078,0.15846 0.0078,0.233789 0.0026,0.07274 0.0039,0.135081 0.0039,0.187031 h 0.01559 c 0.04935,-0.161051 0.101307,-0.300026 0.155859,-0.416924 0.05715,-0.119488 0.123387,-0.2169 0.198721,-0.292236 0.07533,-0.07793 0.164949,-0.135074 0.268857,-0.171445 0.103904,-0.03896 0.229891,-0.05844 0.377959,-0.05845 0.05715,5e-6 0.111697,0.0052 0.163653,0.01559 0.05195,0.0078 0.09221,0.01559 0.120791,0.02338 v 0.64292 c -0.04676,-0.01299 -0.101311,-0.02208 -0.163653,-0.02727 -0.06235,-0.0078 -0.132483,-0.01169 -0.21041,-0.01169 -0.161057,4e-6 -0.298732,0.03637 -0.413027,0.109102 -0.111701,0.07274 -0.203918,0.174046 -0.276651,0.303926 -0.07014,0.127288 -0.122091,0.280549 -0.155859,0.459785 -0.03377,0.176643 -0.05066,0.370168 -0.05065,0.580576 v 2.197617 h -0.701368"
           style="font-variant:normal;font-weight:normal;font-stretch:normal;font-size:7.98000002px;font-family:Arial;-inkscape-font-specification:ArialMT;writing-mode:lr-tb;fill:#000000;fill-opacity:1;fill-rule:nonzero;stroke:none"
           id="path65254"
           inkscape:connector-curvature="0" />
        <path
           d="m -33.437838,-48.072518 v -0.670196 h 0.701367 v 0.670196 h -0.701367 m 0,5.112187 v -4.215996 h 0.701367 v 4.215996 h -0.701367"
           style="font-variant:normal;font-weight:normal;font-stretch:normal;font-size:7.98000002px;font-family:Arial;-inkscape-font-specification:ArialMT;writing-mode:lr-tb;fill:#000000;fill-opacity:1;fill-rule:nonzero;stroke:none"
           id="path65256"
           inkscape:connector-curvature="0" />
        <path
           d="m -28.129817,-45.087811 c -4e-6,0.319513 -0.02598,0.614347 -0.07793,0.884502 -0.05196,0.270157 -0.138979,0.502647 -0.261065,0.69747 -0.119496,0.194825 -0.279251,0.348086 -0.479267,0.459785 -0.197425,0.109102 -0.441605,0.163653 -0.73254,0.163653 -0.30133,0 -0.564992,-0.05715 -0.790986,-0.171446 -0.225997,-0.114296 -0.398741,-0.301327 -0.518232,-0.561093 h -0.01948 c 0.0026,0.0052 0.0039,0.02857 0.0039,0.07014 0.0026,0.04156 0.0039,0.09352 0.0039,0.15586 0.0026,0.06234 0.0039,0.132481 0.0039,0.21041 0.0026,0.07533 0.0039,0.150664 0.0039,0.225996 v 1.648213 h -0.701367 V -46.3152 c 0,-0.101305 -0.0013,-0.198717 -0.0039,-0.292236 -1e-6,-0.09351 -0.0013,-0.177936 -0.0039,-0.253272 -0.0026,-0.07793 -0.0052,-0.144166 -0.0078,-0.198721 -0.0026,-0.05455 -0.0052,-0.09351 -0.0078,-0.116894 h 0.677988 c 0.0026,0.0078 0.0052,0.03507 0.0078,0.08183 0.0052,0.04676 0.0091,0.10391 0.01169,0.171445 0.0052,0.06495 0.0091,0.135082 0.01169,0.210411 0.0052,0.07534 0.0078,0.146771 0.0078,0.214306 h 0.01559 c 0.06494,-0.135074 0.138973,-0.249371 0.2221,-0.34289 0.08312,-0.09611 0.177938,-0.174039 0.284443,-0.233789 0.106502,-0.06234 0.224695,-0.1065 0.35458,-0.132481 0.132478,-0.02857 0.280545,-0.04286 0.444199,-0.04286 0.290935,4e-6 0.535115,0.05196 0.73254,0.155859 0.200016,0.10391 0.359771,0.250678 0.479267,0.440303 0.122086,0.187035 0.209107,0.414329 0.261065,0.681885 0.05195,0.264963 0.07793,0.559797 0.07793,0.884502 m -0.736435,0.01559 c -4e-6,-0.259764 -0.01559,-0.490955 -0.04676,-0.693575 -0.03118,-0.202614 -0.08573,-0.374059 -0.163652,-0.514336 -0.07534,-0.14027 -0.176644,-0.246773 -0.303926,-0.319511 -0.127288,-0.07273 -0.287044,-0.109098 -0.479268,-0.109102 -0.155861,4e-6 -0.302629,0.02208 -0.440303,0.06624 -0.137677,0.04416 -0.258468,0.128588 -0.362373,0.253272 -0.10131,0.124691 -0.181837,0.297435 -0.241582,0.518232 -0.05975,0.218206 -0.08962,0.502649 -0.08962,0.85333 -1e-6,0.298733 0.02468,0.552004 0.07403,0.759815 0.04935,0.205216 0.12079,0.371466 0.214307,0.49875 0.09611,0.127286 0.214305,0.219502 0.35458,0.27665 0.140272,0.05455 0.301326,0.08183 0.483164,0.08183 0.194822,10e-7 0.355876,-0.03767 0.483164,-0.112998 0.12988,-0.07533 0.232487,-0.184433 0.307823,-0.327304 0.07793,-0.142871 0.132477,-0.316913 0.163652,-0.522129 0.03117,-0.207811 0.04675,-0.444198 0.04676,-0.70916"
           style="font-variant:normal;font-weight:normal;font-stretch:normal;font-size:7.98000002px;font-family:Arial;-inkscape-font-specification:ArialMT;writing-mode:lr-tb;fill:#000000;fill-opacity:1;fill-rule:nonzero;stroke:none"
           id="path65258"
           inkscape:connector-curvature="0" />
        <path
           d="m -25.639678,-42.991503 c -0.106506,0.02857 -0.215607,0.05065 -0.327305,0.06624 -0.109103,0.01818 -0.236388,0.02728 -0.381855,0.02728 -0.561095,0 -0.841641,-0.318213 -0.841641,-0.954639 v -2.813262 h -0.48706 v -0.510439 h 0.514336 l 0.206513,-0.942949 h 0.467578 v 0.942949 h 0.779297 v 0.510439 h -0.779297 v 2.661299 c -1e-6,0.202618 0.03247,0.345489 0.09741,0.428614 0.06754,0.08053 0.183133,0.120791 0.346787,0.120791 0.06754,0 0.132478,-0.0052 0.194824,-0.01559 0.06494,-0.01039 0.135076,-0.02338 0.21041,-0.03896 v 0.518232"
           style="font-variant:normal;font-weight:normal;font-stretch:normal;font-size:7.98000002px;font-family:Arial;-inkscape-font-specification:ArialMT;writing-mode:lr-tb;fill:#000000;fill-opacity:1;fill-rule:nonzero;stroke:none"
           id="path65260"
           inkscape:connector-curvature="0" />
        <path
           d="m -21.479287,-45.072225 c -4e-6,0.737735 -0.162357,1.287139 -0.48706,1.648212 -0.324711,0.361075 -0.796185,0.541612 -1.414424,0.541612 -0.293537,0 -0.5559,-0.04416 -0.78709,-0.132481 -0.231193,-0.08832 -0.427316,-0.223398 -0.588369,-0.405234 -0.158458,-0.181835 -0.280548,-0.40913 -0.36627,-0.681885 -0.08313,-0.27535 -0.124688,-0.598758 -0.124687,-0.970224 -1e-6,-1.454684 0.62993,-2.182027 1.889795,-2.182032 0.327302,5e-6 0.609147,0.04546 0.845537,0.136377 0.238981,0.09092 0.433805,0.227299 0.584472,0.409131 0.153258,0.18184 0.266256,0.409134 0.338995,0.681885 0.07273,0.272757 0.109097,0.590969 0.109101,0.954639 m -0.736435,0 c -4e-6,-0.327303 -0.02598,-0.597459 -0.07793,-0.810469 -0.04936,-0.213005 -0.123392,-0.383151 -0.2221,-0.51044 -0.09612,-0.127281 -0.214309,-0.215602 -0.35458,-0.264961 -0.140276,-0.05195 -0.298733,-0.07793 -0.475371,-0.07793 -0.17924,3e-6 -0.341594,0.02728 -0.48706,0.08183 -0.142873,0.05196 -0.264963,0.142874 -0.36627,0.272754 -0.10131,0.127288 -0.179239,0.297435 -0.233789,0.510439 -0.05195,0.213011 -0.07793,0.47927 -0.07793,0.79878 -1e-6,0.327306 0.02857,0.598761 0.08572,0.814365 0.05715,0.213009 0.135077,0.383155 0.233789,0.510439 0.101307,0.127286 0.2195,0.216905 0.35458,0.268858 0.137674,0.05195 0.287039,0.07793 0.448096,0.07793 0.179236,10e-7 0.341589,-0.02468 0.48706,-0.07403 0.145466,-0.05195 0.268855,-0.141572 0.370166,-0.268857 0.101306,-0.127285 0.179235,-0.29873 0.233789,-0.514336 0.05455,-0.215604 0.08182,-0.487059 0.08183,-0.814365"
           style="font-variant:normal;font-weight:normal;font-stretch:normal;font-size:7.98000002px;font-family:Arial;-inkscape-font-specification:ArialMT;writing-mode:lr-tb;fill:#000000;fill-opacity:1;fill-rule:nonzero;stroke:none"
           id="path65262"
           inkscape:connector-curvature="0" />
        <path
           d="m -20.52986,-42.960331 v -3.234082 c 0,-0.08832 -0.0013,-0.177936 -0.0039,-0.268857 -10e-7,-0.09351 -0.0013,-0.183132 -0.0039,-0.268858 -0.0026,-0.08572 -0.0052,-0.166246 -0.0078,-0.241582 -0.0026,-0.07533 -0.0052,-0.142867 -0.0078,-0.202617 h 0.662403 c 0.0026,0.05975 0.0052,0.128588 0.0078,0.206514 0.0052,0.07534 0.0091,0.153265 0.01169,0.233789 0.0052,0.08053 0.0078,0.15846 0.0078,0.233789 0.0026,0.07274 0.0039,0.135081 0.0039,0.187031 h 0.01559 c 0.04935,-0.161051 0.101307,-0.300026 0.155859,-0.416924 0.05715,-0.119488 0.123387,-0.2169 0.198721,-0.292236 0.07533,-0.07793 0.164949,-0.135074 0.268857,-0.171445 0.103904,-0.03896 0.229891,-0.05844 0.377959,-0.05845 0.05715,5e-6 0.111697,0.0052 0.163652,0.01559 0.05195,0.0078 0.09221,0.01559 0.120791,0.02338 v 0.64292 c -0.04676,-0.01299 -0.101311,-0.02208 -0.163652,-0.02727 -0.06235,-0.0078 -0.132483,-0.01169 -0.21041,-0.01169 -0.161057,4e-6 -0.298732,0.03637 -0.413027,0.109102 -0.111701,0.07274 -0.203918,0.174046 -0.276651,0.303926 -0.07014,0.127288 -0.122091,0.280549 -0.155859,0.459785 -0.03377,0.176643 -0.05066,0.370168 -0.05065,0.580576 v 2.197617 h -0.701368"
           style="font-variant:normal;font-weight:normal;font-stretch:normal;font-size:7.98000002px;font-family:Arial;-inkscape-font-specification:ArialMT;writing-mode:lr-tb;fill:#000000;fill-opacity:1;fill-rule:nonzero;stroke:none"
           id="path65264"
           inkscape:connector-curvature="0" />
        <path
           d="m -13.416276,-47.842626 v 4.882295 h -0.740332 v -4.882295 h -1.885898 v -0.607851 h 4.512129 v 0.607851 h -1.885899"
           style="font-variant:normal;font-weight:normal;font-stretch:normal;font-size:7.98000002px;font-family:Arial;-inkscape-font-specification:ArialMT;writing-mode:lr-tb;fill:#000000;fill-opacity:1;fill-rule:nonzero;stroke:none"
           id="path65266"
           inkscape:connector-curvature="0" />
        <path
           d="m -10.587477,-42.882401 c -0.423419,0 -0.741632,-0.111699 -0.954639,-0.335098 -0.213008,-0.223398 -0.319512,-0.529921 -0.319511,-0.91957 -10e-7,-0.277948 0.05195,-0.505243 0.155859,-0.681885 0.106503,-0.179236 0.244179,-0.31951 0.413027,-0.42082 0.171444,-0.101307 0.366269,-0.171443 0.584473,-0.21041 0.218201,-0.03896 0.440301,-0.06104 0.666299,-0.06624 l 0.9468454,-0.01559 v -0.229892 c -3.1e-6,-0.17404 -0.018187,-0.322106 -0.054551,-0.444199 -0.03637,-0.122087 -0.09222,-0.220798 -0.1675489,-0.296133 -0.075335,-0.07533 -0.1701492,-0.129879 -0.2844433,-0.163653 -0.1117017,-0.03636 -0.2441821,-0.05455 -0.3974414,-0.05455 -0.1350798,3e-6 -0.2571698,0.01039 -0.3662688,0.03117 -0.109104,0.01819 -0.203918,0.05326 -0.284444,0.105206 -0.08053,0.04936 -0.14547,0.118196 -0.194824,0.206513 -0.04936,0.08573 -0.08183,0.194828 -0.09741,0.327305 l -0.732539,-0.06624 c 0.02598,-0.166247 0.07533,-0.31821 0.148066,-0.455889 0.07273,-0.14027 0.175341,-0.261061 0.307822,-0.362373 0.135077,-0.101305 0.302626,-0.179234 0.502647,-0.233789 0.202615,-0.05714 0.446795,-0.08572 0.7325387,-0.08572 0.5299191,5e-6 0.928659,0.122094 1.1962207,0.36627 0.2675549,0.241585 0.4013341,0.592269 0.4013379,1.052051 v 1.815761 c -3.8e-6,0.207814 0.027272,0.364972 0.081826,0.471475 0.054547,0.103907 0.158453,0.15586 0.3117187,0.155859 0.038961,1e-6 0.077925,-0.0026 0.1168946,-0.0078 0.03896,-0.0052 0.076626,-0.01169 0.112998,-0.01948 v 0.436406 c -0.088325,0.02078 -0.1766449,0.03637 -0.2649609,0.04676 -0.085727,0.01039 -0.1779435,0.01559 -0.2766504,0.01559 -0.1324843,0 -0.246781,-0.01689 -0.3428906,-0.05065 -0.093519,-0.03637 -0.1701499,-0.08962 -0.2298926,-0.159756 -0.059749,-0.07273 -0.1052083,-0.161055 -0.136377,-0.264961 -0.031175,-0.106504 -0.050657,-0.229892 -0.058447,-0.370166 h -0.023379 c -0.075335,0.135079 -0.1584599,0.257168 -0.249375,0.366269 -0.088323,0.109102 -0.1922292,0.202618 -0.3117187,0.280547 -0.1194946,0.07533 -0.2558714,0.13378 -0.4091304,0.175342 -0.150666,0.04156 -0.324709,0.06234 -0.522129,0.06234 m 0.159756,-0.526026 c 0.223396,1e-6 0.41822,-0.04026 0.5844721,-0.120791 0.1688452,-0.08312 0.3078196,-0.188329 0.4169239,-0.315615 0.1116963,-0.127284 0.1948212,-0.266259 0.249375,-0.416924 0.054548,-0.150662 0.081823,-0.294832 0.081826,-0.43251 v -0.346787 l -0.7676074,0.01559 c -0.1714466,0.0026 -0.3350996,0.01559 -0.4909566,0.03896 -0.153263,0.02078 -0.288341,0.06365 -0.405234,0.128584 -0.116896,0.06494 -0.210412,0.155861 -0.280547,0.272754 -0.06754,0.116896 -0.10131,0.270158 -0.101309,0.459785 -10e-7,0.228595 0.06104,0.405235 0.183135,0.529922 0.124686,0.124688 0.301326,0.187032 0.529922,0.187031"
           style="font-variant:normal;font-weight:normal;font-stretch:normal;font-size:7.98000002px;font-family:Arial;-inkscape-font-specification:ArialMT;writing-mode:lr-tb;fill:#000000;fill-opacity:1;fill-rule:nonzero;stroke:none"
           id="path65268"
           inkscape:connector-curvature="0" />
        <path
           d="m -3.6631381,-45.087811 c -4.1e-6,1.470274 -0.5169372,2.20541 -1.5508008,2.20541 -0.3195139,0 -0.5857734,-0.05715 -0.7987793,-0.171446 -0.2104117,-0.116894 -0.3818568,-0.303925 -0.5143359,-0.561093 h -0.00779 c -1.2e-6,0.06754 -0.0026,0.137676 -0.00779,0.21041 -0.0026,0.07274 -0.0065,0.140274 -0.011689,0.202617 -0.0026,0.06234 -0.0065,0.115596 -0.01169,0.159756 -0.0026,0.04416 -0.0052,0.07144 -0.00779,0.08183 h -0.6779883 c 0.0026,-0.02338 0.00519,-0.06234 0.00779,-0.116894 0.0026,-0.05715 0.00519,-0.124688 0.00779,-0.202618 0.0026,-0.07793 0.0039,-0.163652 0.0039,-0.257168 0.0026,-0.09352 0.0039,-0.190927 0.0039,-0.292236 v -4.913467 h 0.7013672 v 1.648213 c -1.3e-6,0.07793 -0.0013,0.153266 -0.0039,0.225996 -1.3e-6,0.07014 -0.0013,0.132484 -0.0039,0.187031 -0.0026,0.06495 -0.0052,0.12599 -0.00779,0.183135 h 0.015586 c 0.1298814,-0.270152 0.3013266,-0.463677 0.5143359,-0.580576 0.2156035,-0.11689 0.481863,-0.175337 0.7987793,-0.175342 0.5325165,5e-6 0.9234633,0.179243 1.1728418,0.537715 0.2519687,0.35848 0.3779549,0.90139 0.377959,1.628731 m -0.7364356,0.02338 c -3.3e-6,-0.290935 -0.018187,-0.540309 -0.054551,-0.748125 -0.03637,-0.207809 -0.094818,-0.377955 -0.1753418,-0.510439 -0.08053,-0.135075 -0.1831378,-0.233785 -0.3078223,-0.296133 -0.1246902,-0.06234 -0.2766529,-0.09351 -0.4558887,-0.09352 -0.1844358,3e-6 -0.3480879,0.02988 -0.490957,0.08962 -0.1402752,0.05975 -0.2584684,0.155863 -0.3545801,0.28834 -0.093517,0.132483 -0.1649525,0.306526 -0.2143066,0.522128 -0.049357,0.215609 -0.074034,0.47927 -0.074033,0.790987 -1.3e-6,0.30133 0.024676,0.554601 0.074033,0.759814 0.049354,0.205216 0.1207896,0.372765 0.2143066,0.502647 0.096112,0.127286 0.2143049,0.219502 0.3545801,0.27665 0.1402714,0.05455 0.3013259,0.08183 0.4831641,0.08183 0.1714427,10e-7 0.319509,-0.02987 0.4441992,-0.08962 0.1246845,-0.05974 0.2285907,-0.155859 0.3117187,-0.28834 0.083122,-0.132479 0.1441667,-0.303924 0.1831348,-0.514336 0.041559,-0.213006 0.06234,-0.470174 0.062344,-0.771504"
           style="font-variant:normal;font-weight:normal;font-stretch:normal;font-size:7.98000002px;font-family:Arial;-inkscape-font-specification:ArialMT;writing-mode:lr-tb;fill:#000000;fill-opacity:1;fill-rule:nonzero;stroke:none"
           id="path65270"
           inkscape:connector-curvature="0" />
        <path
           d="m -2.7939352,-42.960331 v -5.782383 h 0.7013672 v 5.782383 h -0.7013672"
           style="font-variant:normal;font-weight:normal;font-stretch:normal;font-size:7.98000002px;font-family:Arial;-inkscape-font-specification:ArialMT;writing-mode:lr-tb;fill:#000000;fill-opacity:1;fill-rule:nonzero;stroke:none"
           id="path65272"
           inkscape:connector-curvature="0" />
        <path
           d="m -0.48705434,-44.920263 c -1.07e-6,0.220803 0.022079,0.424719 0.0662402,0.611748 0.0467566,0.184435 0.11689327,0.344191 0.21041016,0.479268 0.0961118,0.132481 0.21820155,0.236387 0.36626953,0.311719 0.14806454,0.07274 0.32600381,0.109102 0.53381836,0.109101 0.30392322,1e-6 0.54680389,-0.06104 0.72864259,-0.183134 0.1844305,-0.12209 0.3091178,-0.27665 0.3740625,-0.463682 l 0.6156446,0.175342 c -0.044164,0.116895 -0.1065078,0.235088 -0.1870313,0.35458 -0.077933,0.116895 -0.1831384,0.223399 -0.3156152,0.319512 -0.1324838,0.09352 -0.2987337,0.171445 -0.49875,0.233789 -0.1974247,0.05975 -0.43640885,0.08962 -0.71695319,0.08962 -0.62343913,0 -1.09880975,-0.185733 -1.42611329,-0.557198 -0.32470752,-0.371464 -0.48706082,-0.923465 -0.48706052,-1.656005 -3e-7,-0.394842 0.049355,-0.72864 0.1480664,-1.001397 0.0987104,-0.275348 0.23378832,-0.498746 0.40523436,-0.670195 0.17144425,-0.171442 0.37146358,-0.29483 0.60005859,-0.370166 0.22859203,-0.07793 0.47277148,-0.11689 0.73253907,-0.116895 0.35327868,5e-6 0.64811238,0.05715 0.88450198,0.171446 0.238981,0.1143 0.4299086,0.272757 0.5727832,0.475371 0.1454649,0.200023 0.2480723,0.436409 0.3078223,0.70916 0.06234,0.272756 0.093512,0.56759 0.093516,0.884502 v 0.09352 h -3.00808598 m 2.28333988,-0.537714 c -0.038968,-0.444197 -0.1519661,-0.767605 -0.3389941,-0.970225 -0.1870341,-0.205211 -0.4558913,-0.307819 -0.80657234,-0.307822 -0.11689662,3e-6 -0.24028517,0.01949 -0.37016601,0.05845 -0.12728687,0.03637 -0.24548012,0.102611 -0.35458008,0.198721 -0.10910294,0.09612 -0.20131965,0.227298 -0.27665039,0.393545 -0.0753332,0.163655 -0.11819446,0.372766 -0.12858399,0.627334 H 1.7962859"
           style="font-variant:normal;font-weight:normal;font-stretch:normal;font-size:7.98000002px;font-family:Arial;-inkscape-font-specification:ArialMT;writing-mode:lr-tb;fill:#000000;fill-opacity:1;fill-rule:nonzero;stroke:none"
           id="path65274"
           inkscape:connector-curvature="0" />
        <path
           d="m -40.224038,1.7839976 c -5e-6,0.2311927 -0.04546,0.4442003 -0.136377,0.6390235 -0.08832,0.1948249 -0.226001,0.3636724 -0.413028,0.5065429 -0.187035,0.1402737 -0.423422,0.250674 -0.70916,0.3312012 -0.283148,0.07793 -0.619544,0.1168945 -1.009189,0.1168946 -0.683186,-10e-8 -1.215705,-0.1194922 -1.597559,-0.3584766 -0.381856,-0.2389839 -0.624737,-0.5844718 -0.728642,-1.0364649 l 0.720849,-0.1441699 c 0.03637,0.1428724 0.09222,0.2727551 0.167549,0.3896485 0.07533,0.1168954 0.176639,0.2182039 0.303926,0.3039257 0.129881,0.083126 0.289637,0.1480671 0.479267,0.1948243 0.189627,0.046758 0.416922,0.070137 0.681885,0.070137 0.220798,5e-7 0.423415,-0.018183 0.607852,-0.054551 0.18443,-0.038964 0.342887,-0.097412 0.475371,-0.1753418 0.132476,-0.077929 0.235084,-0.1779385 0.307822,-0.3000293 0.07533,-0.1246863 0.112994,-0.2727526 0.112998,-0.4441992 -4e-6,-0.1792366 -0.04157,-0.3247052 -0.124687,-0.4364063 -0.08053,-0.1116972 -0.194829,-0.2039139 -0.342891,-0.2766504 -0.14807,-0.072732 -0.324711,-0.13377694 -0.529922,-0.18313473 -0.205218,-0.049353 -0.432512,-0.10260494 -0.681885,-0.15975586 -0.153264,-0.033767 -0.307824,-0.0701341 -0.463681,-0.10910156 -0.153264,-0.0415598 -0.30133,-0.0896164 -0.4442,-0.14416992 -0.140274,-0.0571456 -0.272755,-0.12338577 -0.397441,-0.19872071 -0.124689,-0.075329 -0.232491,-0.16494802 -0.323408,-0.26885742 -0.09092,-0.10650054 -0.162354,-0.22859027 -0.214307,-0.36626953 -0.05195,-0.14026968 -0.07793,-0.30132421 -0.07793,-0.48316406 -1e-6,-0.25976131 0.05195,-0.48186061 0.155859,-0.66629881 0.106503,-0.1870263 0.25327,-0.3402879 0.440303,-0.4597852 0.187029,-0.1194868 0.40783,-0.2065082 0.662402,-0.2610644 0.254568,-0.054545 0.529919,-0.081821 0.826055,-0.081826 0.34029,5.6e-6 0.631227,0.027281 0.872812,0.081826 0.241578,0.051959 0.445494,0.131187 0.611748,0.2376855 0.166246,0.1065091 0.298726,0.2389894 0.397442,0.3974414 0.101304,0.1558641 0.181831,0.3376999 0.241582,0.5455078 l -0.732539,0.12858402 c -0.03637,-0.13247612 -0.08962,-0.25066942 -0.159756,-0.35458012 -0.06754,-0.1039016 -0.157162,-0.190923 -0.268858,-0.2610644 -0.111702,-0.070132 -0.248079,-0.1233838 -0.409131,-0.1597559 -0.15846,-0.036362 -0.345491,-0.054546 -0.561093,-0.054551 -0.254573,5.1e-6 -0.46888,0.023384 -0.64292,0.070137 -0.171447,0.044165 -0.310422,0.1052099 -0.416924,0.1831347 -0.103908,0.077934 -0.17924,0.1701511 -0.225996,0.2766504 -0.04416,0.1039106 -0.06624,0.21690858 -0.06624,0.33899416 -2e-6,0.16365632 0.04026,0.29873431 0.120791,0.40523438 0.08312,0.10390988 0.194822,0.19093128 0.335097,0.26106445 0.140272,0.0701401 0.302625,0.12858733 0.487061,0.17534179897 0.184431,0.046761071 0.380554,0.093518831 0.588369,0.14027344103 0.168845,0.038968 0.336393,0.0792316 0.502646,0.12079101 0.168845,0.0389678 0.329899,0.0870244 0.483165,0.14416992 0.153257,0.0545536 0.296128,0.11949497 0.428613,0.19482422 0.135073,0.0753347 0.251968,0.16755137 0.350683,0.2766504 0.09871,0.10910387 0.175337,0.23768772 0.229893,0.38575192 0.05714,0.1480683 0.08572,0.3221111 0.08572,0.5221289"
           style="font-variant:normal;font-weight:normal;font-stretch:normal;font-size:7.98000002px;font-family:Arial;-inkscape-font-specification:ArialMT;writing-mode:lr-tb;fill:#000000;fill-opacity:1;fill-rule:nonzero;stroke:none"
           id="path65276"
           inkscape:connector-curvature="0" />
        <path
           d="m -39.150073,1.3397984 c -10e-7,0.2208025 0.02208,0.4247184 0.06624,0.6117481 0.04676,0.1844347 0.116894,0.3441904 0.21041,0.4792675 0.09611,0.1324813 0.218202,0.2363874 0.36627,0.3117188 0.148065,0.072735 0.326004,0.109102 0.533818,0.1091016 0.303924,4e-7 0.546804,-0.061044 0.728643,-0.1831348 0.18443,-0.1220891 0.309118,-0.2766495 0.374062,-0.4636816 l 0.615645,0.1753417 c -0.04416,0.1168954 -0.106508,0.2350886 -0.187031,0.3545801 -0.07793,0.116895 -0.183139,0.2233988 -0.315616,0.3195117 -0.132483,0.093516 -0.298733,0.1714454 -0.49875,0.2337891 -0.197424,0.059746 -0.436408,0.089619 -0.716953,0.089619 -0.623439,-10e-8 -1.098809,-0.1857324 -1.426113,-0.5571973 -0.324707,-0.371464 -0.487061,-0.9234654 -0.48706,-1.6560059 -10e-7,-0.3948412 0.04935,-0.7286397 0.148066,-1.00139647 0.09871,-0.27534815 0.233788,-0.49874636 0.405234,-0.67019531 0.171445,-0.17144134 0.371464,-0.29482988 0.600059,-0.37016602 0.228592,-0.0779254 0.472771,-0.11689024 0.732539,-0.11689453 0.353279,4.29e-6 0.648112,0.0571527 0.884502,0.17144531 0.238981,0.11430089 0.429909,0.27275776 0.572783,0.4753711 0.145465,0.20002298 0.248072,0.43640946 0.307822,0.70916016 0.06234,0.27275657 0.09351,0.56759026 0.09352,0.88450196 v 0.093516 h -3.008086 m 2.28334,-0.53771483 c -0.03897,-0.44419628 -0.151966,-0.76760416 -0.338994,-0.97022461 -0.187034,-0.20521117 -0.455891,-0.30781849 -0.806572,-0.30782227 -0.116897,3.78e-6 -0.240286,0.0194862 -0.370166,0.0584473 -0.127287,0.0363709 -0.245481,0.10261104 -0.354581,0.1987207 -0.109103,0.0961167 -0.201319,0.22729822 -0.27665,0.39354493 -0.07533,0.1636553 -0.118194,0.37276642 -0.128584,0.62733398 h 2.275547"
           style="font-variant:normal;font-weight:normal;font-stretch:normal;font-size:7.98000002px;font-family:Arial;-inkscape-font-specification:ArialMT;writing-mode:lr-tb;fill:#000000;fill-opacity:1;fill-rule:nonzero;stroke:none"
           id="path65278"
           inkscape:connector-curvature="0" />
        <path
           d="m -33.656498,4.9557359 c -0.241584,-1.6e-6 -0.45589,-0.024679 -0.64292,-0.074033 -0.187032,-0.049357 -0.346788,-0.1207925 -0.479267,-0.2143066 -0.132482,-0.090919 -0.240284,-0.2000207 -0.323409,-0.3273047 -0.08312,-0.1272861 -0.142871,-0.2688582 -0.179238,-0.4247168 l 0.705264,-0.1013086 c 0.04676,0.1948235 0.149364,0.3441886 0.307822,0.4480957 0.161053,0.1065028 0.371463,0.1597547 0.631231,0.1597559 0.158454,-1.2e-6 0.302624,-0.022081 0.432509,-0.06624 0.12988,-0.044161 0.240281,-0.1155966 0.331201,-0.2143066 0.09092,-0.096114 0.161052,-0.2221002 0.210411,-0.377959 0.04935,-0.1558597 0.07403,-0.3454884 0.07403,-0.5688867 V 2.5165372 h -0.0078 c -0.05196,0.1065046 -0.116898,0.2091119 -0.194824,0.3078223 -0.07534,0.096114 -0.168851,0.1818362 -0.280547,0.2571679 -0.109104,0.075332 -0.236389,0.1363771 -0.381856,0.1831348 -0.145471,0.04416 -0.31172,0.06624 -0.49875,0.06624 -0.26756,0 -0.497452,-0.04416 -0.689677,-0.1324804 -0.18963,-0.090918 -0.34549,-0.2259958 -0.467579,-0.4052344 -0.119492,-0.1792376 -0.207813,-0.401337 -0.264961,-0.6662988 -0.05455,-0.2675572 -0.08183,-0.576678 -0.08183,-0.9273633 0,-0.3376929 0.02728,-0.64161837 0.08183,-0.91177737 0.05715,-0.27015297 0.148066,-0.49874649 0.272754,-0.68578125 0.127285,-0.18962502 0.290937,-0.3337948 0.490957,-0.43250976 0.202616,-0.10130437 0.448094,-0.15195861 0.736436,-0.1519629 0.298728,4.29e-6 0.557195,0.0688421 0.7754,0.20651368 0.220798,0.13508206 0.390945,0.32860726 0.51044,0.58057617 h 0.0078 c -3e-6,-0.0649378 0.0013,-0.13767215 0.0039,-0.21820313 0.0052,-0.0805236 0.0091,-0.1558555 0.01169,-0.22599609 0.0052,-0.0727304 0.01039,-0.13507405 0.01559,-0.18703125 0.0052,-0.051949 0.01039,-0.081822 0.01559,-0.0896191 h 0.666298 c -0.0026,0.0233831 -0.0052,0.0636467 -0.0078,0.12079101 -0.0026,0.0545548 -0.0052,0.12079499 -0.0078,0.19872071 -0.0026,0.0779335 -0.0052,0.1649549 -0.0078,0.26106445 -4e-6,0.0935192 -4e-6,0.19093118 0,0.29223633 v 3.2223925 c -4e-6,0.5896675 -0.145473,1.0325675 -0.436407,1.3287012 -0.288343,0.298729 -0.731243,0.4480941 -1.328701,0.4480957 m 1.067637,-3.7640039 c -3e-6,-0.2935327 -0.03247,-0.54420628 -0.09741,-0.75202144 -0.06235,-0.21040708 -0.145472,-0.38185222 -0.249375,-0.51433593 -0.103909,-0.13247697 -0.223401,-0.22988898 -0.358477,-0.29223633 -0.132483,-0.06234 -0.26886,-0.0935119 -0.409131,-0.0935156 -0.17924,3.76e-6 -0.3338,0.0311756 -0.463681,0.0935156 -0.127287,0.0623473 -0.233791,0.16105819 -0.319512,0.29613281 -0.08313,0.13248371 -0.14547,0.30392885 -0.187031,0.51433594 -0.03897,0.20781515 -0.05845,0.4571899 -0.05845,0.74812495 -10e-7,0.3039276 0.01948,0.5597965 0.05845,0.7676074 0.04156,0.205216 0.103905,0.3714658 0.187031,0.49875 0.08312,0.1272859 0.188329,0.2182038 0.315615,0.2727539 0.127284,0.054551 0.279246,0.081827 0.455889,0.081826 0.140271,5e-7 0.276648,-0.029873 0.409131,-0.089619 0.135075,-0.059746 0.255866,-0.1545598 0.362373,-0.2844434 0.106501,-0.1298818 0.192223,-0.2974305 0.257168,-0.5026465 0.06494,-0.2052132 0.09741,-0.4532892 0.09741,-0.7442285"
           style="font-variant:normal;font-weight:normal;font-stretch:normal;font-size:7.98000002px;font-family:Arial;-inkscape-font-specification:ArialMT;writing-mode:lr-tb;fill:#000000;fill-opacity:1;fill-rule:nonzero;stroke:none"
           id="path65280"
           inkscape:connector-curvature="0" />
        <path
           d="M -28.356805,3.2997301 V 0.62674177 c -3e-6,-0.20521196 -0.01299,-0.3766571 -0.03896,-0.51433593 -0.02598,-0.13767246 -0.07014,-0.24807274 -0.132481,-0.33120118 -0.05975,-0.0857191 -0.138977,-0.14546508 -0.237685,-0.17923828 -0.09871,-0.0363635 -0.219505,-0.054547 -0.362374,-0.0545508 -0.148068,3.75e-6 -0.281847,0.0298768 -0.401337,0.0896191 -0.119494,0.057152 -0.222102,0.14157579 -0.307823,0.25327149 -0.08313,0.10910485929 -0.148067,0.24548168 -0.194824,0.40913086 -0.04416,0.16105752 -0.06624,0.34678976 -0.06624,0.55719726 V 3.29973 H -30.796 v -3.31590821 c 0,-0.08831691 -0.0013,-0.18053361 -0.0039,-0.27665039 -10e-7,-0.0987072 -0.0013,-0.19092395 -0.0039,-0.27665039 -0.0026,-0.0883164 -0.0052,-0.16364831 -0.0078,-0.2259961 -0.0026,-0.0623396 -0.0052,-0.10260322 -0.0078,-0.12079101 h 0.662403 c 0.0026,0.0129925 0.0052,0.0480608 0.0078,0.10520508 0.0026,0.0571525 0.0052,0.12339266 0.0078,0.1987207 0.0052,0.0727382 0.0091,0.14807017 0.01169,0.22599609 0.0026,0.0753356 0.0039,0.13897816 0.0039,0.19092774 h 0.01169 c 0.06234,-0.12208623 0.129881,-0.23248651 0.202617,-0.33120117 0.07273,-0.098707 0.157157,-0.18183193 0.253272,-0.249375 0.09871,-0.0701326 0.210408,-0.12338448 0.335097,-0.15975586 0.127283,-0.0389606 0.274051,-0.058443 0.440303,-0.0584473 0.319509,4.29e-6 0.571481,0.0636468 0.755918,0.19092774 0.187028,0.12728913 0.31691,0.32990611 0.389648,0.60785156 h 0.01169 c 0.06234,-0.12208623 0.132477,-0.23248651 0.21041,-0.33120117 0.07793,-0.098707 0.168844,-0.18183193 0.272754,-0.249375 0.103902,-0.0701326 0.220796,-0.12338448 0.350684,-0.15975586 0.129878,-0.0389606 0.277944,-0.058443 0.444199,-0.0584473 0.213002,4.29e-6 0.396137,0.0285785 0.549404,0.0857227 0.155854,0.0571526 0.283139,0.14547281 0.381856,0.26496094 0.0987,0.11949601 0.171439,0.2740564 0.218203,0.46368164 0.04675,0.18703454 0.07013,0.41043275 0.07014,0.67019531 V 3.29973 h -0.693574 V 0.62674169 c -5e-6,-0.20521196 -0.01299,-0.3766571 -0.03897,-0.51433593 -0.02598,-0.13767246 -0.07014,-0.24807274 -0.13248,-0.33120118 -0.05975,-0.0857191 -0.13898,-0.14546508 -0.237686,-0.17923828 -0.09872,-0.0363635 -0.219506,-0.054547 -0.362373,-0.0545508 -0.148071,3.75e-6 -0.28185,0.0285779 -0.401338,0.0857227 -0.119496,0.0545544 -0.222103,0.13638048 -0.307822,0.24547851 -0.08313,0.10910488 -0.14807,0.24548169 -0.194824,0.40913086 -0.04416,0.1636552 -0.06624,0.35328391 -0.06624,0.56888672 V 3.29973 h -0.693575"
           style="font-variant:normal;font-weight:normal;font-stretch:normal;font-size:7.98000002px;font-family:Arial;-inkscape-font-specification:ArialMT;writing-mode:lr-tb;fill:#000000;fill-opacity:1;fill-rule:nonzero;stroke:none"
           id="path65282"
           inkscape:connector-curvature="0" />
        <path
           d="m -23.595129,1.3397984 c -1e-6,0.2208025 0.02208,0.4247184 0.06624,0.6117481 0.04676,0.1844347 0.116893,0.3441904 0.21041,0.4792675 0.09611,0.1324813 0.218202,0.2363874 0.36627,0.3117188 0.148064,0.072735 0.326004,0.109102 0.533818,0.1091016 0.303923,4e-7 0.546804,-0.061044 0.728643,-0.1831348 0.18443,-0.1220891 0.309117,-0.2766495 0.374062,-0.4636816 l 0.615645,0.1753417 c -0.04416,0.1168954 -0.106508,0.2350886 -0.187032,0.3545801 -0.07793,0.116895 -0.183138,0.2233988 -0.315615,0.3195117 -0.132484,0.093516 -0.298733,0.1714454 -0.49875,0.2337891 -0.197424,0.059746 -0.436409,0.089619 -0.716953,0.089619 -0.623439,-10e-8 -1.09881,-0.1857324 -1.426113,-0.5571973 -0.324708,-0.371464 -0.487061,-0.9234654 -0.487061,-1.6560059 0,-0.3948412 0.04936,-0.7286397 0.148067,-1.00139647 0.09871,-0.27534815 0.233788,-0.49874636 0.405234,-0.67019531 0.171444,-0.17144134 0.371464,-0.29482988 0.600059,-0.37016602 0.228592,-0.0779254 0.472771,-0.11689024 0.732539,-0.11689453 0.353278,4.29e-6 0.648112,0.0571527 0.884502,0.17144531 0.238981,0.11430089 0.429908,0.27275776 0.572783,0.4753711 0.145465,0.20002298 0.248072,0.43640946 0.307822,0.70916016 0.06234,0.27275657 0.09351,0.56759026 0.09352,0.88450196 v 0.093516 h -3.008086 m 2.28334,-0.53771483 c -0.03897,-0.44419628 -0.151966,-0.76760416 -0.338994,-0.97022461 -0.187035,-0.20521117 -0.455892,-0.30781849 -0.806573,-0.30782227 -0.116896,3.78e-6 -0.240285,0.0194862 -0.370166,0.0584473 -0.127287,0.0363709 -0.24548,0.10261104 -0.35458,0.1987207 -0.109103,0.0961167 -0.201319,0.22729822 -0.27665,0.39354493 -0.07533,0.1636553 -0.118195,0.37276642 -0.128584,0.62733398 h 2.275547"
           style="font-variant:normal;font-weight:normal;font-stretch:normal;font-size:7.98000002px;font-family:Arial;-inkscape-font-specification:ArialMT;writing-mode:lr-tb;fill:#000000;fill-opacity:1;fill-rule:nonzero;stroke:none"
           id="path65284"
           inkscape:connector-curvature="0" />
        <path
           d="M -17.039313,3.2997301 V 0.62674177 c -3e-6,-0.20521196 -0.01559,-0.3766571 -0.04676,-0.51433593 -0.02858,-0.13767246 -0.07663,-0.24807274 -0.14417,-0.33120118 -0.06754,-0.0857191 -0.157161,-0.14546508 -0.268857,-0.17923828 -0.109104,-0.0363635 -0.245481,-0.054547 -0.409131,-0.0545508 -0.166252,3.75e-6 -0.316916,0.0298768 -0.451992,0.0896191 -0.132482,0.057152 -0.246779,0.14157579 -0.342891,0.25327149 -0.09352,0.10910485929 -0.166251,0.24548168 -0.218203,0.40913086 -0.05195,0.16105752 -0.07793,0.34678976 -0.07793,0.55719726 V 3.29973 h -0.701368 v -3.31590821 c 0,-0.08831691 -0.0013,-0.18053361 -0.0039,-0.27665039 -1e-6,-0.0987072 -0.0013,-0.19092395 -0.0039,-0.27665039 -0.0026,-0.0883164 -0.0052,-0.16364831 -0.0078,-0.2259961 -0.0026,-0.0623396 -0.0052,-0.10260322 -0.0078,-0.12079101 h 0.662403 c 0.0026,0.0129925 0.0052,0.0480608 0.0078,0.10520508 0.0026,0.0571525 0.0052,0.12339266 0.0078,0.1987207 0.0052,0.0727382 0.0091,0.14807017 0.01169,0.22599609 0.0026,0.0753356 0.0039,0.13897816 0.0039,0.19092774 h 0.01169 c 0.06754,-0.12208623 0.141571,-0.23248651 0.2221,-0.33120117 0.08053,-0.098707 0.174041,-0.18183193 0.280547,-0.249375 0.106502,-0.0701326 0.228591,-0.12338448 0.366269,-0.15975586 0.137674,-0.0389606 0.297429,-0.058443 0.479268,-0.0584473 0.233786,4.29e-6 0.435104,0.0285785 0.603955,0.0857227 0.168844,0.0571526 0.307819,0.14547281 0.416924,0.26496094 0.109098,0.11949601 0.188326,0.2740564 0.237685,0.46368164 0.05195,0.18703454 0.07793,0.41043275 0.07793,0.67019531 V 3.2997301 h -0.705264"
           style="font-variant:normal;font-weight:normal;font-stretch:normal;font-size:7.98000002px;font-family:Arial;-inkscape-font-specification:ArialMT;writing-mode:lr-tb;fill:#000000;fill-opacity:1;fill-rule:nonzero;stroke:none"
           id="path65286"
           inkscape:connector-curvature="0" />
        <path
           d="m -13.652793,3.2685582 c -0.106506,0.028574 -0.215608,0.050654 -0.327305,0.06624 -0.109103,0.018184 -0.236388,0.027275 -0.381855,0.027275 -0.561095,0 -0.841642,-0.3182126 -0.841641,-0.9546387 v -2.81326169 h -0.487061 v -0.51043945 h 0.514336 l 0.206514,-0.94294926 h 0.467578 v 0.94294926 h 0.779297 v 0.51043945 h -0.779297 V 2.2554716 c -1e-6,0.2026181 0.03247,0.345489 0.09741,0.4286133 0.06754,0.080528 0.183133,0.1207915 0.346787,0.120791 0.06754,5e-7 0.132479,-0.00519 0.194825,-0.015586 0.06494,-0.01039 0.135076,-0.023378 0.21041,-0.038965 v 0.5182324"
           style="font-variant:normal;font-weight:normal;font-stretch:normal;font-size:7.98000002px;font-family:Arial;-inkscape-font-specification:ArialMT;writing-mode:lr-tb;fill:#000000;fill-opacity:1;fill-rule:nonzero;stroke:none"
           id="path65288"
           inkscape:connector-curvature="0" />
      </g>
      <path
         id="path64914"
         style="fill:#000000;fill-opacity:1;fill-rule:nonzero;stroke:none"
         d="m 351.6,542.88 h 1.38 v 0.30005 h -1.38 z"
         inkscape:connector-curvature="0" />
      <path
         id="path64916"
         style="fill:#000000;fill-opacity:1;fill-rule:nonzero;stroke:none"
         d="m 352.56,542.82 -0.9,1.56 -0.66,1.08 1.26,-0.36 5.4,-1.56 1.74,-0.48 -1.74,-0.48 -5.4,-1.5 -1.26,-0.36 0.66,1.08 0.3,0.24 5.4,1.5 0.3,-0.96 h -0.3 l -5.4,1.56 0.3,0.96 0.3,-0.24 0.9,-1.56"
         inkscape:connector-curvature="0" />
      <path
         id="path64918"
         style="fill:#000000;fill-opacity:1;fill-rule:nonzero;stroke:none"
         d="m 351.66,541.8 0.9,1.5 h 0.9 l 0.18,-0.3 -0.18,-0.24 -0.9,-1.5"
         inkscape:connector-curvature="0" />
      <path
         id="path64920"
         style="fill:#000000;fill-opacity:1;fill-rule:evenodd;stroke:none"
         d="m 352.98,543.06 -0.9,1.56 5.4,-1.56 -5.4,-1.5"
         inkscape:connector-curvature="0" />
      <path
         id="path64922"
         style="fill:#000000;fill-opacity:1;fill-rule:nonzero;stroke:none"
         d="m 297.06,542.88 h 0.12 v 0.30005 h -0.12 z"
         inkscape:connector-curvature="0" />
      <path
         id="path64924"
         style="fill:#000000;fill-opacity:1;fill-rule:nonzero;stroke:none"
         d="m 297.18,542.88 h 54.54 v 0.30005 h -54.54 z"
         inkscape:connector-curvature="0" />
      <path
         id="path64926"
         style="fill:#000000;fill-opacity:1;fill-rule:nonzero;stroke:none"
         d="m 242.76,543 h 1.38 v 0.30005 h -1.38 z"
         inkscape:connector-curvature="0" />
      <path
         id="path64928"
         style="fill:#000000;fill-opacity:1;fill-rule:nonzero;stroke:none"
         d="m 243.72,542.94 -0.84,1.56 -0.66,1.08 1.26,-0.36 5.34,-1.56 1.62,-0.48 -1.62,-0.48 -5.34,-1.56 -1.2,-0.36 0.6,1.08 0.3,0.24 5.34,1.56 0.3,-0.96 h -0.3 l -5.34,1.56 0.3,0.96 0.3,-0.24 0.84,-1.56"
         inkscape:connector-curvature="0" />
      <path
         id="path64930"
         style="fill:#000000;fill-opacity:1;fill-rule:nonzero;stroke:none"
         d="m 242.88,541.86 0.84,1.56 h 0.9 l 0.12,-0.24 -0.12,-0.24 -0.84,-1.56"
         inkscape:connector-curvature="0" />
      <path
         id="path64932"
         style="fill:#000000;fill-opacity:1;fill-rule:evenodd;stroke:none"
         d="m 244.14,543.18 -0.84,1.56 5.34,-1.56 -5.34,-1.56"
         inkscape:connector-curvature="0" />
      <path
         id="path64934"
         style="fill:#000000;fill-opacity:1;fill-rule:nonzero;stroke:none"
         d="m 234.72,543 h 8.16 v 0.30005 h -8.16 z"
         inkscape:connector-curvature="0" />
      <path
         id="path64936"
         style="fill:#000000;fill-opacity:1;fill-rule:nonzero;stroke:none"
         d="m 234.72,543.18 h 0.3 v 70.56 h -0.3 z"
         inkscape:connector-curvature="0" />
      <path
         id="path64938"
         style="fill:#000000;fill-opacity:1;fill-rule:nonzero;stroke:none"
         d="m 365.94,556.92 h 0.30002 v 1.38 H 365.94 Z"
         inkscape:connector-curvature="0" />
      <path
         id="path64940"
         style="fill:#000000;fill-opacity:1;fill-rule:nonzero;stroke:none"
         d="m 365.88,557.34 1.56,0.9 1.08,0.66 -0.36,-1.26 -1.56,-5.4 -0.48,-1.68 -0.48,1.68 -1.56,5.4 -0.36,1.2 1.08,-0.6 0.24,-0.3 1.56,-5.4 -0.96,-0.3 v 0.3 l 1.56,5.4 0.96,-0.3 -0.24,-0.3 -1.56,-0.9"
         inkscape:connector-curvature="0" />
      <path
         id="path64942"
         style="fill:#000000;fill-opacity:1;fill-rule:nonzero;stroke:none"
         d="m 364.8,558.24 1.56,-0.9 v -0.9 l -0.24,-0.12 -0.24,0.12 -1.56,0.9"
         inkscape:connector-curvature="0" />
      <path
         id="path64944"
         style="fill:#000000;fill-opacity:1;fill-rule:evenodd;stroke:none"
         d="m 366.12,556.92 1.56,0.9 -1.56,-5.4 -1.56,5.4"
         inkscape:connector-curvature="0" />
      <path
         id="path64946"
         style="fill:#000000;fill-opacity:1;fill-rule:nonzero;stroke:none"
         d="m 366,558.18 h 0.30002 v 0.12 H 366 Z"
         inkscape:connector-curvature="0" />
      <path
         id="path64948"
         style="fill:#000000;fill-opacity:1;fill-rule:nonzero;stroke:none"
         d="m 366,558.3 h 0.30002 v 55.32 H 366 Z"
         inkscape:connector-curvature="0" />
      <path
         id="path64950"
         style="fill:#000000;fill-opacity:1;fill-rule:nonzero;stroke:none"
         d="m 251.76,552.72 h 0.12001 v 0.29999 H 251.76 Z"
         inkscape:connector-curvature="0" />
      <path
         id="path64952"
         style="fill:#000000;fill-opacity:1;fill-rule:nonzero;stroke:none;stroke-width:1"
         d="m 251.88,552.72 h 45.05054 v 0.29999 H 251.88 Z"
         inkscape:connector-curvature="0" />
      <path
         id="path64954"
         style="fill:#000000;fill-opacity:1;fill-rule:nonzero;stroke:none"
         d="m 252.06,533.4 h 0.12 v 0.29999 h -0.12 z"
         inkscape:connector-curvature="0" />
      <path
         id="path64956"
         style="fill:#000000;fill-opacity:1;fill-rule:nonzero;stroke:none;stroke-width:0.99999994"
         d="m 252.18,533.40131 h 44.787 v 0.29738 H 252.18 Z"
         inkscape:connector-curvature="0" />
      <text
         id="text64958"
         transform="matrix(1,0,0,-1,255.72,536.46)"
         style="line-height:0%">
        <tspan
           id="tspan64960"
           sodipodi:role="line"
           y="0"
           x="0 5.775126 10.225572 14.229138 18.232704 20.872488 22.657614 27.108061 29.340067 33.790512"
           style="font-variant:normal;font-weight:normal;font-stretch:normal;font-size:7.98000002px;line-height:1.25;font-family:Arial;-inkscape-font-specification:ArialMT;writing-mode:lr-tb;fill:#000000;fill-opacity:1;fill-rule:nonzero;stroke:none">Descriptor</tspan>
        <tspan
           id="tspan64962"
           sodipodi:role="line"
           y="-89.159744"
           x="61.739662 66.17495 70.610229 73.265976 77.701263 82.136543"
           style="font-variant:normal;font-weight:normal;font-stretch:normal;font-size:7.98000002px;line-height:1.25;font-family:Arial;-inkscape-font-specification:ArialMT;writing-mode:lr-tb;fill:#000000;fill-opacity:1;fill-rule:nonzero;stroke:none">31(63)</tspan>
      </text>
      <path
         id="path64964"
         style="fill:#81c784;fill-opacity:1;fill-rule:nonzero;stroke:none"
         d="m 221.4,613.5 h 56.46 v 9.9 H 221.4 Z"
         inkscape:connector-curvature="0" />
      <path
         id="path64966"
         style="fill:#000000;fill-opacity:1;fill-rule:nonzero;stroke:none"
         d="m 221.4,623.16 h 56.7 v 0.47998 h -56.7 z"
         inkscape:connector-curvature="0" />
      <path
         id="path64968"
         style="fill:#000000;fill-opacity:1;fill-rule:nonzero;stroke:none"
         d="m 277.62,613.26 h 0.48001 V 623.4 H 277.62 Z"
         inkscape:connector-curvature="0" />
      <path
         id="path64970"
         style="fill:#000000;fill-opacity:1;fill-rule:nonzero;stroke:none"
         d="m 221.16,613.26 h 56.7 v 0.47998 h -56.7 z"
         inkscape:connector-curvature="0" />
      <path
         id="path64972"
         style="fill:#000000;fill-opacity:1;fill-rule:nonzero;stroke:none"
         d="m 221.16,613.5 h 0.48001 v 10.14 H 221.16 Z"
         inkscape:connector-curvature="0" />
      <text
         id="text64974"
         transform="matrix(1,0,0,-1,225.84,615.9)"
         style="line-height:0%">
        <tspan
           id="tspan64976"
           sodipodi:role="line"
           y="0"
           x="0 5.3314381 9.7770958 14.222754 16.449972 18.671604 24.003042 28.4487 30.229038 34.674698 38.673473 40.900692 45.346352"
           style="font-variant:normal;font-weight:normal;font-stretch:normal;font-size:7.98000002px;line-height:1.25;font-family:Arial;-inkscape-font-specification:ArialMT;writing-mode:lr-tb;fill:#000000;fill-opacity:1;fill-rule:nonzero;stroke:none">Seg. Selector</tspan>
        <tspan
           id="tspan64978"
           sodipodi:role="line"
           y="-9.7196398"
           x="47.7603 -4.6196222 -0.181146"
           style="font-variant:normal;font-weight:normal;font-stretch:normal;font-size:7.98000002px;line-height:1.25;font-family:Arial;-inkscape-font-specification:ArialMT;writing-mode:lr-tb;fill:#000000;fill-opacity:1;fill-rule:nonzero;stroke:none">015</tspan>
        <tspan
           id="tspan64980"
           sodipodi:role="line"
           y="-3.7194779"
           x="-34.97953 -30.541855 -26.104176 -21.605053 -19.832693 -15.841896 -11.404218"
           style="font-variant:normal;font-weight:normal;font-stretch:normal;font-size:7.98000002px;line-height:1.25;font-family:Arial;-inkscape-font-specification:ArialMT;writing-mode:lr-tb;fill:#000000;fill-opacity:1;fill-rule:nonzero;stroke:none">Logical</tspan>
        <tspan
           id="tspan64982"
           sodipodi:role="line"
           y="4.5605698"
           x="-38.999855 -33.71949 -29.220366 -24.779495 -22.118166 -17.677296 -13.683306"
           style="font-variant:normal;font-weight:normal;font-stretch:normal;font-size:7.98000002px;line-height:1.25;font-family:Arial;-inkscape-font-specification:ArialMT;writing-mode:lr-tb;fill:#000000;fill-opacity:1;fill-rule:nonzero;stroke:none">Address</tspan>
      </text>
      <path
         id="path64984"
         style="fill:#000000;fill-opacity:1;fill-rule:nonzero;stroke:none"
         d="m 264.3,604.02 h 0.30002 v 1.38 H 264.3 Z"
         inkscape:connector-curvature="0" />
      <path
         id="path64986"
         style="fill:#000000;fill-opacity:1;fill-rule:nonzero;stroke:none"
         d="m 264.24,604.44 1.56,0.9 1.08,0.66 -0.36,-1.26 -1.56,-5.4 -0.48,-1.74 -0.48,1.74 -1.5,5.4 -0.36,1.26 1.08,-0.66 0.24,-0.3 1.5,-5.4 -0.96,-0.3 v 0.3 l 1.56,5.4 0.96,-0.3 -0.24,-0.3 -1.56,-0.9"
         inkscape:connector-curvature="0" />
      <path
         id="path64988"
         style="fill:#000000;fill-opacity:1;fill-rule:nonzero;stroke:none"
         d="m 263.22,605.34 1.5,-0.9 v -0.9 l -0.3,-0.18 -0.24,0.18 -1.5,0.9"
         inkscape:connector-curvature="0" />
      <path
         id="path64990"
         style="fill:#000000;fill-opacity:1;fill-rule:evenodd;stroke:none"
         d="m 264.48,604.02 1.56,0.9 -1.56,-5.4 -1.5,5.4"
         inkscape:connector-curvature="0" />
      <path
         id="path64992"
         style="fill:#000000;fill-opacity:1;fill-rule:nonzero;stroke:none"
         d="m 264.36,605.28 h 0.29999 v 0.12 H 264.36 Z"
         inkscape:connector-curvature="0" />
      <path
         id="path64994"
         style="fill:#000000;fill-opacity:1;fill-rule:nonzero;stroke:none"
         d="m 264.36,605.4 h 0.29999 v 8.22 H 264.36 Z"
         inkscape:connector-curvature="0" />
      <text
         id="text64996"
         transform="matrix(1,0,0,-1,363.3,540.96)"
         style="line-height:0%">
        <tspan
           id="tspan64998"
           y="0"
           x="0"
           style="font-variant:normal;font-weight:normal;font-stretch:normal;font-size:9.96000004px;font-family:Arial;-inkscape-font-specification:ArialMT;writing-mode:lr-tb;fill:#000000;fill-opacity:1;fill-rule:nonzero;stroke:none">+</tspan>
      </text>
      <path
         id="path65000"
         style="fill:#000000;fill-opacity:1;fill-rule:nonzero;stroke:none"
         d="m 365.94,516.12 h 0.30002 v 1.3799 H 365.94 Z"
         inkscape:connector-curvature="0" />
      <path
         id="path65002"
         style="fill:#000000;fill-opacity:1;fill-rule:nonzero;stroke:none"
         d="m 365.88,516.54 1.56,0.9 1.08,0.66 -0.36,-1.26 -1.56,-5.4 -0.48,-1.68 -0.48,1.68 -1.56,5.4 -0.36,1.2 1.08,-0.6 0.24,-0.3 1.56,-5.4 -0.96,-0.3 v 0.3 l 1.56,5.4 0.96,-0.3 -0.24,-0.3 -1.56,-0.9"
         inkscape:connector-curvature="0" />
      <path
         id="path65004"
         style="fill:#000000;fill-opacity:1;fill-rule:nonzero;stroke:none"
         d="m 364.8,517.44 1.56,-0.9 v -0.9 l -0.24,-0.12 -0.24,0.12 -1.56,0.9"
         inkscape:connector-curvature="0" />
      <path
         id="path65006"
         style="fill:#000000;fill-opacity:1;fill-rule:evenodd;stroke:none"
         d="m 366.12,516.12 1.56,0.9 -1.56,-5.4 -1.56,5.4"
         inkscape:connector-curvature="0" />
      <path
         id="path65008"
         style="fill:#000000;fill-opacity:1;fill-rule:nonzero;stroke:none"
         d="m 366,517.38 h 0.30002 v 0.12 H 366 Z"
         inkscape:connector-curvature="0" />
      <path
         id="path65010"
         style="fill:#000000;fill-opacity:1;fill-rule:nonzero;stroke:none"
         d="m 366,517.5 h 0.30002 v 20.04 H 366 Z"
         inkscape:connector-curvature="0" />
      <path
         id="path65012"
         style="fill:#ffffff;fill-opacity:1;fill-rule:nonzero;stroke:none"
         d="M 316.44,499.92 H 418.2 v 9.9 H 316.44 Z"
         inkscape:connector-curvature="0" />
      <path
         id="path65014"
         style="fill:#000000;fill-opacity:1;fill-rule:nonzero;stroke:none"
         d="m 316.44,509.58 h 102 v 0.48001 h -102 z"
         inkscape:connector-curvature="0" />
      <path
         id="path65016"
         style="fill:#000000;fill-opacity:1;fill-rule:nonzero;stroke:none"
         d="m 417.96,499.68 h 0.48001 v 10.14 H 417.96 Z"
         inkscape:connector-curvature="0" />
      <path
         id="path65018"
         style="fill:#000000;fill-opacity:1;fill-rule:nonzero;stroke:none"
         d="m 316.2,499.68 h 102 v 0.48001 h -102 z"
         inkscape:connector-curvature="0" />
      <path
         id="path65020"
         style="fill:#000000;fill-opacity:1;fill-rule:nonzero;stroke:none"
         d="m 316.2,499.92 h 0.47998 v 10.14 H 316.2 Z"
         inkscape:connector-curvature="0" />
      <text
         id="text65022"
         transform="matrix(1,0,0,-1,342.24,501.96)"
         style="line-height:0%">
        <tspan
           id="tspan65024"
           sodipodi:role="line"
           y="0"
           x="0 4.4424658 6.2196121 10.662078 15.104544 19.54701 22.209936 24.431568 29.759813 34.202278 38.644745 41.344379 45.786846 49.782433"
           style="font-variant:normal;font-weight:normal;font-stretch:normal;font-size:7.98000002px;line-height:1.25;font-family:Arial;-inkscape-font-specification:ArialMT;writing-mode:lr-tb;fill:#000000;fill-opacity:1;fill-rule:nonzero;stroke:none">Linear Address</tspan>
        <tspan
           id="tspan65026"
           sodipodi:role="line"
           y="-10.019688"
           x="71.82 -24.959845 -20.524561 -16.025436 -13.369692 -8.9344082 -4.4991241"
           style="font-variant:normal;font-weight:normal;font-stretch:normal;font-size:7.98000002px;line-height:1.25;font-family:Arial;-inkscape-font-specification:ArialMT;writing-mode:lr-tb;fill:#000000;fill-opacity:1;fill-rule:nonzero;stroke:none">031(63)</tspan>
      </text>
    </g>
  </g>
</svg>
