<?xml version="1.0" encoding="UTF-8" standalone="no"?>
<svg
   xmlns:svg="http://www.w3.org/2000/svg"
   xmlns="http://www.w3.org/2000/svg"
   xmlns:sodipodi="http://sodipodi.sourceforge.net/DTD/sodipodi-0.dtd"
   xmlns:inkscape="http://www.inkscape.org/namespaces/inkscape"
   sodipodi:docname="bochsdbg.svg"
   inkscape:version="1.1-dev (d1157cc2fb, 2020-05-29)"
   id="svg6"
   version="1.1"
   viewBox="0 0 152.97635 59.805321"
   height="59.805321mm"
   width="152.97635mm">
  <defs
     id="defs2" />
  <sodipodi:namedview
     inkscape:window-maximized="1"
     inkscape:window-y="27"
     inkscape:window-x="0"
     inkscape:window-height="1025"
     inkscape:window-width="1920"
     fit-margin-bottom="0"
     fit-margin-right="0"
     fit-margin-left="0"
     fit-margin-top="0"
     inkscape:snap-global="false"
     showgrid="false"
     inkscape:current-layer="layer3"
     inkscape:document-units="mm"
     inkscape:cy="191.61608"
     inkscape:cx="282.24779"
     inkscape:zoom="1.4"
     inkscape:pageshadow="2"
     inkscape:pageopacity="0.0"
     borderopacity="1.0"
     bordercolor="#666666"
     pagecolor="#ffffff"
     id="base" />
  <g
     transform="translate(-26.840959,-17.947931)"
     id="layer1"
     inkscape:groupmode="layer"
     inkscape:label="Layer 1">
    <g
       transform="matrix(0.46002244,0,0,0.46002244,92.117385,-112.13796)"
       id="g108567">
      <path
         id="path108460"
         d="m -125.55713,405.12325 -2.20457,-0.18216 0.0952,-0.88183 c 0.1474,-1.36594 3.83701,-19.54501 4.03032,-19.85779 0.0943,-0.15252 0.89525,-0.27731 1.77995,-0.27731 1.18737,0 1.65472,0.12028 1.78484,0.45935 0.0969,0.25265 -0.23798,2.53438 -0.74428,5.07052 -0.50631,2.53614 -0.91606,4.87572 -0.91058,5.19906 0.009,0.54142 0.0571,0.52981 0.60692,-0.14698 3.41649,-4.20587 5.97124,-5.34331 7.9767,-3.55143 0.93027,0.83119 0.95995,0.92937 0.95995,3.17513 0,2.10349 -0.10641,2.53274 -1.15276,4.64989 -1.28168,2.5933 -3.42911,4.96204 -5.31399,5.86164 -1.294,0.61759 -3.44735,0.76781 -6.90766,0.48191 z m 6.57372,-3.654 c 2.24712,-2.24714 3.72008,-7.49713 2.18501,-7.78791 -1.11913,-0.21199 -5.93005,5.28127 -6.28574,7.17722 -0.29037,1.54788 -0.0278,1.87795 1.49375,1.87795 1.18719,0 1.48398,-0.14426 2.60698,-1.26726 z m 11.37401,3.27239 c -1.69793,-0.88748 -2.41842,-1.91787 -2.59005,-3.70413 -0.3525,-3.66855 2.20386,-8.20171 5.6406,-10.00238 1.24853,-0.65416 1.86729,-0.78008 3.83991,-0.78141 2.690572,-0.002 3.817031,0.45102 4.900376,1.96989 0.572718,0.80297 0.68342,1.3199 0.677628,3.16433 -0.006,1.8744 -0.148393,2.49585 -0.951572,4.14939 -1.834407,3.77658 -4.321392,5.56801 -8.006782,5.7674 -1.87943,0.10169 -2.3971,0.0187 -3.51011,-0.56309 z m 6.28752,-3.26473 c 2.523726,-2.6339 2.914053,-8.0337 0.62232,-8.60889 -2.62357,-0.65848 -5.2162,2.53187 -5.28126,6.4988 -0.0402,2.44973 0.56936,3.36969 2.23265,3.36969 1.0524,0 1.38464,-0.17247 2.42629,-1.2596 z m 10.453748,3.2364 c -1.866544,-0.98706 -2.422239,-2.18676 -2.280628,-4.92368 0.09381,-1.81323 0.292272,-2.54565 1.100775,-4.06256 1.096433,-2.05712 2.877511,-3.78722 4.949682,-4.80802 1.73605,-0.85521 5.892286,-0.98236 6.670577,-0.20406 0.66922,0.66922 0.191427,2.5033 -0.622742,2.39048 -3.001945,-0.41597 -3.586775,-0.41007 -4.466873,0.045 -1.371515,0.70925 -2.35318,1.8987 -3.007972,3.64469 -1.709771,4.55908 0.347138,6.74357 4.768014,5.06377 0.854835,-0.32481 1.647807,-0.47174 1.788214,-0.33134 0.140401,0.14041 0.111573,0.77479 -0.06501,1.43058 -0.231887,0.86117 -0.534332,1.2627 -1.123683,1.49183 -2.946778,1.14569 -5.853954,1.24496 -7.710352,0.26327 z m 31.154256,0.27761 c -1.114203,-0.28957 -1.337187,-0.46893 -1.414354,-1.13759 -0.05039,-0.43658 0.04687,-1.05253 0.216106,-1.36876 0.289103,-0.54021 0.390785,-0.54997 1.681523,-0.16151 2.028576,0.61051 4.013164,0.54112 4.650009,-0.16258 0.778967,-0.86076 0.408363,-1.70229 -1.618681,-3.67549 -2.781895,-2.70801 -3.251399,-4.14973 -1.970404,-6.05061 1.145703,-1.7001 2.346339,-2.19044 5.363463,-2.19044 1.455017,0 2.98315,0.0952 3.39585,0.21151 0.655306,0.1847 0.735167,0.34166 0.630416,1.23896 -0.161236,1.3811 -0.593217,1.69431 -1.842636,1.33598 -1.64522,-0.47184 -3.147065,-0.3533 -3.800318,0.29995 -0.323337,0.32333 -0.587886,0.73425 -0.587886,0.91315 0,0.17891 0.908606,1.27017 2.019128,2.42504 2.380969,2.47604 2.683962,2.99286 2.683962,4.57811 0,1.51582 -1.482991,3.28227 -3.183255,3.79168 -1.432418,0.42916 -4.478525,0.40596 -6.222923,-0.0474 z m -18.799315,-0.69718 c 0.0072,-0.4523 0.900036,-5.18742 1.984123,-10.52249 l 1.971064,-9.70011 1.733016,-0.0894 c 0.953155,-0.0492 1.839266,0.017 1.969131,0.14698 0.129865,0.13001 -0.220101,2.54749 -0.777699,5.37216 -0.557601,2.82467 -1.013817,5.26991 -1.013817,5.43387 0,0.16396 0.821106,-0.61168 1.824684,-1.72363 2.806408,-3.10947 5.098762,-3.87841 6.722275,-2.25489 1.137988,1.13798 1.110337,2.01946 -0.27272,8.69393 l -1.096375,5.29097 -1.721141,0.0894 c -0.946631,0.0492 -1.830412,-0.0198 -1.963961,-0.15338 -0.13355,-0.13355 0.213811,-2.53852 0.771907,-5.34435 0.5581,-2.80586 0.943388,-5.21698 0.856198,-5.35806 -0.557779,-0.9025 -2.442065,0.66038 -4.948345,4.10431 -0.84378,1.15945 -1.302444,2.23238 -1.759223,4.1152 l -0.617872,2.54685 -1.83714,0.0875 -1.837148,0.0875 z"
         style="fill:#2e14a0;stroke-width:0.293943"
         sodipodi:nodetypes="scsssssssssssssssssssscsssssssssssssssssssssssssssssssssssssssssscssssssscssssssccccs" />
      <g
         id="g108553">
        <path
           id="path108458"
           d="m -93.664473,383.30557 c -7.521997,-2.70656 -12.732537,-5.37792 -22.058257,-11.30888 -4.09206,-2.60246 -9.34534,-5.57434 -11.67397,-6.60417 -4.90443,-2.16897 -6.0076,-4.10619 -4.94547,-8.68448 0.39149,-1.68753 0.72029,-7.01336 0.73066,-11.83518 0.0209,-9.73778 -0.2052,-10.23603 -5.68477,-12.52555 -5.09865,-2.13035 -4.8144,-4.05276 1.00207,-6.77704 6.22931,-2.91766 7.9986,-6.1998 4.12684,-7.65556 -0.77039,-0.28966 -3.2675,-1.71483 -5.54911,-3.16704 -5.57583,-3.54891 -5.57583,-5.3512 0,-8.70099 6.30601,-3.78846 31.0776,-14.42158 35.81289,-15.37256 5.615462,-1.12775 7.840472,-0.42138 10.278802,3.26319 1.123473,1.69768 2.563519,3.28656 3.200101,3.53084 0.636582,0.24428 3.977079,-0.97355 7.423325,-2.70629 3.446247,-1.73274 7.159102,-3.15044 8.250788,-3.15044 1.091686,0 4.566453,1.68153 7.721703,3.73673 3.155253,2.05519 7.219551,4.32127 9.031783,5.03572 1.812225,0.71446 5.012416,2.72804 7.111536,4.47463 2.099112,1.74659 5.832225,4.29843 8.295811,5.67075 5.345868,2.97787 6.810496,4.48092 5.572607,5.71881 -0.475493,0.4755 -3.28726,2.17585 -6.248361,3.77855 -6.974267,3.77484 -7.150372,5.32427 -0.858733,7.55544 8.027833,2.84687 8.018935,4.21508 -0.0614,9.44222 -3.004726,1.94374 -5.682733,4.10635 -5.95113,4.80579 -0.268397,0.69943 -0.487994,4.95078 -0.487994,9.44742 0,9.02288 -0.224432,9.52785 -5.41609,12.18611 -1.584387,0.81124 -5.725315,3.84774 -9.202066,6.74777 -6.625043,5.5261 -21.962008,15.50337 -23.562787,15.32848 -0.512876,-0.056 -3.599327,-1.06146 -6.858781,-2.23427 z"
           style="fill:#020202;fill-opacity:1;stroke-width:0.790171" />
        <path
           id="path108485"
           d="m -116.33635,310.06573 c 5.29873,-2.45335 12.27994,-5.59068 15.51378,-6.97185 3.233845,-1.38117 6.006157,-2.89053 6.160694,-3.35414 0.154536,-0.46361 -0.535664,-1.77165 -1.53378,-2.90677 -1.782284,-2.02691 -1.885448,-2.04446 -5.765604,-0.98107 -2.17297,0.59552 -5.19538,1.62026 -6.71645,2.2772 -1.52108,0.65694 -4.18791,1.63372 -5.92628,2.17062 -8.3805,2.58832 -19.35918,8.42213 -19.35918,10.287 0,0.6239 6.18758,3.93789 7.3546,3.93902 0.35098,3.5e-4 4.97348,-2.00666 10.27222,-4.46001 z"
           style="fill:#d7bb06;fill-opacity:1;stroke-width:0.790171" />
        <path
           id="path108483"
           d="m -48.496385,318.39485 c 2.102367,-1.34909 3.822489,-2.74718 3.822489,-3.10688 0,-0.35969 -1.155624,-1.45558 -2.568054,-2.43531 -1.41243,-0.97972 -3.758897,-2.80188 -5.214375,-4.04923 -1.455471,-1.24736 -4.477873,-3.13666 -6.71645,-4.19846 -2.23857,-1.06179 -6.025802,-3.17372 -8.416068,-4.69317 -2.390266,-1.51946 -4.980019,-2.76412 -5.755005,-2.76592 -1.556299,-0.004 -8.90324,3.5241 -9.563139,4.59184 -0.985259,1.59418 6.976556,7.65414 17.356775,13.21073 6.049555,3.23836 11.501416,5.89048 12.11526,5.8936 0.613844,0.003 2.836199,-1.09812 4.938567,-2.4472 z"
           style="fill:#d7bb06;fill-opacity:1;stroke-width:0.790171" />
        <path
           id="path108481"
           d="m -98.010411,326.01747 5.531194,-1.93491 0.226777,-8.0829 c 0.124727,-4.4456 0.05272,-8.53648 -0.160012,-9.09086 -0.425683,-1.10931 -11.553208,3.24289 -22.901858,8.95739 l -6.24151,3.14284 8.21694,4.41783 c 4.51931,2.42981 8.57251,4.44206 9.0071,4.47168 0.4346,0.0296 3.27921,-0.81687 6.321369,-1.88107 z"
           style="fill:#b19407;fill-opacity:1;stroke-width:0.790171" />
        <path
           id="path108479"
           d="m -62.722174,330.09645 c 2.937577,-1.82734 5.355571,-3.5754 5.373302,-3.88458 0.0177,-0.30918 -4.290334,-2.76593 -9.573483,-5.45944 -5.283153,-2.69351 -11.500723,-6.44079 -13.816823,-8.32727 -2.3161,-1.88649 -4.393903,-3.42999 -4.61734,-3.42999 -0.223437,0 -0.406249,3.34814 -0.406249,7.44031 v 7.44031 l 7.704164,5.1623 c 4.237289,2.83926 8.219684,4.98646 8.849765,4.77154 0.63008,-0.21491 3.549078,-1.88584 6.486664,-3.71318 z"
           style="fill:#b19407;fill-opacity:1;stroke-width:0.790171" />
        <path
           id="path108477"
           d="m -77.369477,338.23148 c 0.164223,0 0.298587,-0.32615 0.298587,-0.72479 0,-0.39863 -2.222355,-2.21369 -4.938566,-4.03345 -4.649378,-3.11492 -5.188076,-3.28335 -9.199521,-2.87645 -3.777577,0.38318 -6.528037,1.55276 -5.5635,2.36578 0.188324,0.15874 3.346902,1.91766 7.019063,3.90871 6.493547,3.52082 6.750824,3.58911 9.381003,2.49015 1.487391,-0.62147 2.838712,-1.12995 3.002934,-1.12995 z"
           style="fill:#b19407;fill-opacity:1;stroke-width:0.790171" />
        <path
           id="path108475"
           d="m -93.812486,344.48604 c 1.385189,-0.48288 2.518525,-1.19363 2.518525,-1.57946 0,-0.38582 -2.153928,-1.78879 -4.786506,-3.11771 -2.632578,-1.32893 -7.343973,-4.05824 -10.469763,-6.06516 -3.12579,-2.00691 -8.24868,-4.86961 -11.3842,-6.36156 l -5.70095,-2.71263 -3.32797,1.85242 c -1.83038,1.01883 -3.45868,2.25508 -3.61843,2.74722 -0.36353,1.11988 5.61724,5.51082 12.61091,9.25865 2.92876,1.56949 6.66231,3.69358 8.29679,4.7202 1.63449,1.02662 3.50516,2.09213 4.15705,2.3678 1.55999,0.65967 8.522407,-4.7e-4 11.704544,-1.10977 z"
           style="fill:#d7bb06;fill-opacity:1;stroke-width:0.790171" />
        <path
           id="path108473"
           d="m -62.738942,345.61518 c 2.330379,-1.58868 5.320756,-3.81104 6.645272,-4.93856 1.324515,-1.12753 4.257336,-3.29457 6.517382,-4.81565 2.260038,-1.52108 4.109851,-3.02315 4.110697,-3.33793 7.9e-4,-0.31479 -1.090989,-1.1373 -2.426282,-1.8278 -2.283032,-1.1806 -2.624639,-1.15388 -5.728737,0.4482 -1.815512,0.93701 -5.078814,2.86981 -7.251783,4.2951 -2.172969,1.42529 -6.147305,3.69555 -8.831858,5.04502 -2.684552,1.34947 -5.093894,2.79805 -5.354094,3.21906 -0.566819,0.91713 4.913241,4.80108 6.77409,4.80108 0.719537,0 3.214927,-1.29983 5.545313,-2.88852 z"
           style="fill:#d7bb06;fill-opacity:1;stroke-width:0.790171" />
        <path
           id="path108471"
           d="m -73.910208,371.8379 c 1.521079,-1.40501 4.990717,-3.87943 7.710307,-5.49871 2.71959,-1.61927 6.719828,-4.34729 8.889415,-6.06225 l 3.944714,-3.11811 v -5.11774 c 0,-3.04645 -0.33568,-5.11773 -0.829411,-5.11773 -1.154708,0 -5.425817,2.26102 -8.257551,4.37134 -4.252773,3.16934 -5.441687,3.13155 -12.282209,-0.3904 -4.468727,-2.3008 -6.407183,-2.95324 -6.63425,-2.23296 -0.176441,0.55969 -0.486143,6.45464 -0.688226,13.0999 -0.482029,15.85094 0.530584,17.10213 8.147211,10.06666 z"
           style="fill:#d7bb06;fill-opacity:1;stroke-width:0.790171" />
        <path
           id="path108469"
           d="m -89.005572,377.44388 c 1.269839,-1.53006 2.691689,-18.08078 2.061947,-24.00161 -0.288898,-2.71621 -0.617877,-4.93857 -0.731063,-4.93857 -0.113187,0 -2.986379,0.71115 -6.38487,1.58034 -10.122542,2.58891 -10.426542,2.51664 -24.708672,-5.87444 -3.59411,-2.11162 -6.73688,-3.63718 -6.98392,-3.39014 -0.24704,0.24704 -0.54525,3.23268 -0.66268,6.63476 -0.11744,3.40207 -0.48003,7.51317 -0.80576,9.13578 -0.55159,2.74769 -0.43722,3.00878 1.66624,3.80386 2.27086,0.85836 5.80282,2.95834 15.29629,9.09468 6.28152,4.06023 11.23318,6.60981 15.408331,7.9337 4.140058,1.31277 4.770673,1.31511 5.844157,0.0216 z"
           style="fill:#d7bb06;fill-opacity:1;stroke-width:0.790171" />
      </g>
    </g>
  </g>
  <g
     transform="translate(-26.840959,-17.947931)"
     inkscape:label="Layer 2"
     id="layer2"
     inkscape:groupmode="layer">
    <path
       id="path108764-9"
       d="m 100.79728,55.258927 v -5.64445 h -5.644442 -5.644445 v -1.76389 -1.76388 h 5.644445 5.644442 v -5.64445 -5.64444 h 1.5875 1.5875 v 5.64444 5.64445 h 5.64444 5.64446 v 1.76388 1.76389 h -5.64446 -5.64444 v 5.64445 5.64444 h -1.5875 -1.5875 z"
       style="fill:#050504;stroke-width:0.352777"
       sodipodi:nodetypes="ccccccccccccccccccccccccc" />
  </g>
  <g
     transform="translate(-26.840959,-17.947931)"
     inkscape:label="Layer 3"
     id="layer3"
     inkscape:groupmode="layer">
    <g
       transform="translate(0,-3.2769138)"
       id="g108891">
      <g
         id="g108872"
         transform="translate(207.93401,-119.86813)">
        <path
           style="fill:#d4e7f2;stroke-width:0.352778"
           d="m -84.450065,198.96424 c -1.76201,-1.76202 -2.08227,-2.26286 -1.88124,-2.94206 0.37988,-1.28349 18.91965,-19.72427 19.6099,-19.5052 0.65271,0.20716 1.54905,-0.68278 1.2215,-1.21278 -0.11937,-0.19314 0.24166,-0.86454 0.8023,-1.492 l 1.019331,-1.14084 -0.996901,-1.57196 c -1.87879,-2.96253 -2.60957,-5.80443 -2.60109,-10.11522 0.009,-4.51451 0.57861,-6.74045 2.56241,-10.0115 2.609271,-4.30235 6.568121,-7.46659 11.364681,-9.0836 2.8932,-0.97534 8.578131,-0.89303 11.708851,0.16953 4.3005,1.45958 8.26682,4.65441 10.87795,8.76207 3.52757,5.54934 3.52757,14.77767 0,20.327 -2.60631,4.1001 -6.5611,7.28908 -10.87795,8.77157 -4.58885,1.5759 -11.537791,0.94092 -15.403681,-1.40756 -1.04747,-0.63632 -1.05023,-0.6358 -1.88345,0.35443 -0.47917,0.56946 -1.18772,0.99168 -1.6642,0.99168 -0.90226,0 -1.4321,0.57603 -1.29797,1.41111 0.10745,0.66893 -18.512581,19.24928 -19.618381,19.57657 -0.6792,0.20103 -1.18004,-0.11922 -2.94206,-1.88124 z m 1.9932,-1.1111 c 0.55573,-0.58006 0.93177,-1.1333 0.83563,-1.22944 -0.0961,-0.0961 -0.71101,0.37847 -1.3664,1.05466 -0.65539,0.67619 -1.03142,1.22944 -0.83563,1.22944 0.19578,0 0.81066,-0.4746 1.3664,-1.05466 z m 17.46472,-17.46479 c 0.45498,-0.4843 0.74889,-0.95889 0.65314,-1.05465 -0.0958,-0.0958 -0.6288,0.30049 -1.18453,0.88055 -0.55573,0.58006 -0.84964,1.05466 -0.65314,1.05466 0.19651,0 0.72955,-0.39625 1.18453,-0.88056 z m 2.305051,-2.22496 c -0.23705,-0.23704 -1.245411,0.64284 -1.245411,1.08672 0,0.20034 0.318471,0.0761 0.707721,-0.27622 0.38924,-0.35226 0.6312,-0.71699 0.53769,-0.8105 z m 1.92959,-2.30914 c 0,-0.19403 -0.39688,0.0201 -0.88195,0.47577 -0.48507,0.4557 -0.88194,0.98729 -0.88194,1.18132 0,0.19403 0.39687,-0.0201 0.88194,-0.47577 0.48507,-0.4557 0.88195,-0.98729 0.88195,-1.18132 z m 16.742291,0.99393 c 4.94157,-1.28712 8.79858,-4.52137 11.05857,-9.27306 1.05994,-2.22854 1.25177,-3.04138 1.40382,-5.94826 0.16826,-3.21682 0.14635,-3.35162 -0.49136,-3.02264 -16.320204,-7.55061 -1.891149,9.1718 -7.188871,12.63574 -7.457631,4.8762 -12.67805,5.88393 -16.588022,2.46659 -3.864147,-3.37729 -4.516342,-5.26048 -5.189382,-9.57076 -0.67304,-4.31028 3.927543,0.48427 6.210437,3.09376 1.312311,1.44008 3.092304,1.82947 4.978053,-0.88858 1.695413,-2.55265 -1.51972,-6.10642 1.907069,-13.41936 2.480298,-5.29309 12.806811,-0.58592 8.157726,-5.04397 -1.07009,-0.47325 -2.01692,-0.86045 -2.10407,-0.86045 -4.54852,-1.28101 -9.761561,-0.96465 -13.316421,1.22337 -6.90701,4.25127 -9.730751,14.12222 -4.50873,22.93833 3.31483,4.91164 9.70485,7.22332 15.671221,5.66928 z m 13.56612,-24.06608 c -0.72199,-1.91483 -2.04629,-3.82414 -3.94019,-5.68077 -3.89457,-3.81792 -7.74143,-5.34354 -13.47376,-5.34354 -5.395381,0 -9.446171,1.59923 -12.906841,5.09556 -1.75174,1.76978 -3.457061,4.07667 -3.0136,4.07667 0.12007,0 1.29507,-1.0725 2.61111,-2.38332 3.91921,-3.90369 8.2208,-5.73462 13.453571,-5.72639 5.91448,0.009 10.76219,2.41846 14.57611,7.24383 0.81915,1.03639 1.77458,2.29019 2.12319,2.78622 0.82183,1.16938 1.02777,1.14474 0.57041,-0.0683 z"
           id="path108800"
           sodipodi:nodetypes="ssssscscssssssssssssssssssssssssssssssscsscsszccsccsccccssssscsscc" />
        <path
           style="fill:#d0d0d0;stroke-width:0.352778"
           d="m -82.453345,200.65895 c -1.31689,-0.50917 -3.79236,-3.38804 -3.79236,-4.41035 0,-0.77913 1.72429,-2.67941 9.35745,-10.31257 7.6831,-7.68311 9.53734,-9.36391 10.36285,-9.39354 0.85871,-0.0308 1.02105,-0.19701 1.11269,-1.13906 0.059,-0.60664 0.46472,-1.43876 0.90156,-1.84915 l 0.794251,-0.74616 -1.524951,-3.08974 c -4.62344,-9.36768 -1.4833,-20.11938 7.550021,-25.85094 1.96381,-1.24602 5.68224,-2.48096 7.29024,-2.42118 0.78923,0.0293 0.56794,0.1313 -0.76684,0.35334 -5.50397,0.91559 -10.75973,4.78089 -13.257291,9.74996 -1.12086,2.23004 -1.56462,4.80159 -0.89952,5.21265 0.32461,0.20062 0.39,0.11318 0.22904,-0.30627 -0.1239,-0.32287 -0.098,-0.58703 0.0576,-0.58703 0.1556,0 0.28291,-0.21525 0.28291,-0.47833 0,-1.04948 2.666031,-5.15339 4.596801,-7.076 3.43731,-3.42279 7.60723,-5.14567 12.454131,-5.14567 5.08117,0 8.75473,1.5933 12.52361,5.43175 2.59982,2.64781 3.86734,4.9079 4.96654,8.85575 0.463,1.66288 0.64566,1.9654 0.852,1.41111 0.60376,-1.62189 -0.50751,-5.8182 -2.28747,-8.63785 -1.5426,-2.44363 -4.3676,-5.0289 -6.94875,-6.35908 -1.29763,-0.66873 -2.30589,-1.26932 -2.24056,-1.33465 0.34743,-0.34743 4.6369,2.27905 6.41983,3.93092 4.10322,3.80159 6.19409,8.70204 6.19409,14.51732 0,4.14282 -0.74221,6.88809 -2.8012,10.36104 -3.85474,6.50186 -11.90812,10.36612 -19.309501,9.2653 -2.56292,-0.38118 -7.05637,-1.92377 -7.44755,-2.55672 -0.10719,-0.17344 -0.59614,0.1615 -1.08655,0.74432 -0.49592,0.58937 -1.23785,1.05968 -1.67169,1.05968 -0.97677,0 -1.62669,0.62821 -1.62669,1.57235 0,0.48003 -3.134861,3.84401 -9.260421,9.93724 -5.09323,5.06635 -9.49854,9.29093 -9.78958,9.38795 -0.29105,0.097 -0.84667,0.0536 -1.23473,-0.0964 z m 1.00484,-3.95438 c -0.11134,-0.18014 -0.73398,0.18767 -1.38366,0.81736 -0.64967,0.62968 -1.09013,1.29228 -0.97879,1.47242 0.11133,0.18015 0.73398,-0.18766 1.38366,-0.81735 0.64967,-0.62969 1.09013,-1.29228 0.97879,-1.47243 z m 18.926941,-18.34608 c 3.4e-4,-0.53123 -0.56429,-0.22978 -2.207211,1.17841 -0.92303,0.79114 -1.58805,1.58435 -1.47783,1.76268 0.20255,0.32773 3.684721,-2.45144 3.685041,-2.94109 z m 19.226561,-0.1093 c 0.77611,-0.27283 1.01424,-0.40424 0.52917,-0.29203 -0.48507,0.11222 -2.54882,0.32231 -4.58612,0.46686 l -3.704161,0.26282 3.175001,0.0292 c 1.89873,0.0175 3.74223,-0.1702 4.58611,-0.46685 z m -8.466671,-0.15528 c -0.38805,-0.16676 -0.94368,-0.30319 -1.23472,-0.30319 -0.33354,0 -0.26834,0.11208 0.17639,0.30319 0.38805,0.16675 0.94368,0.30318 1.23472,0.30318 0.33355,0 0.26834,-0.11208 -0.17639,-0.30318 z m -9.34992,-1.23334 c 1.24191,-1.32194 0.50599,-1.55083 -0.79696,-0.24788 -0.7731,0.7731 -0.95553,1.12844 -0.57936,1.12844 0.302,0 0.92134,-0.39625 1.37632,-0.88056 z m 21.182031,0.16783 c 0.76838,-0.39199 1.39706,-0.7921 1.39706,-0.88911 0,-0.15806 -2.78479,1.14228 -3.1456,1.46881 -0.39048,0.35338 0.49498,0.0598 1.74854,-0.5797 z m -15.007111,0.007 c -0.11991,-0.19402 -0.4071,-0.35034 -0.63818,-0.34737 -0.25245,0.003 -0.20894,0.14189 0.10901,0.34737 0.67773,0.43799 0.79986,0.43799 0.52917,0 z m 11.869091,-0.34012 c 7.78138,-2.40484 12.64611,-10.13932 11.54602,-18.3571 -0.78147,-5.83771 -5.58073,-11.66299 -10.8915,-13.21997 -0.82936,-0.24314 -0.84195,-0.22805 -0.21114,0.25325 0.95629,0.72961 0.33054,0.92699 -1.90552,0.60105 -4.235191,-0.6287 -3.51974,-5.51263 -13.605571,3.95234 -2.42186,2.29049 -4.18276,5.7118 -4.78525,9.2974 -0.24432,1.45405 -0.57201,2.64372 -0.72821,2.64372 -1.042031,0 0.40693,5.34228 2.21183,8.15498 3.77216,5.8784 11.66504,8.74625 18.369111,6.67434 z m 6.82813,-2.12932 c 0.35119,-0.38806 0.55915,-0.70556 0.46214,-0.70556 -0.097,0 -0.46373,0.3175 -0.81491,0.70556 -0.35119,0.38805 -0.55915,0.70555 -0.46213,0.70555 0.097,0 0.46372,-0.3175 0.8149,-0.70555 z m -7.68026,-29.84647 c -0.11723,-0.11723 -0.4215,-0.12976 -0.67616,-0.0279 -0.28142,0.11261 -0.19783,0.19621 0.21314,0.21313 0.37188,0.0153 0.58024,-0.0681 0.46302,-0.18528 z m -2.63849,-0.39484 c -0.63059,-0.0783 -1.66246,-0.0783 -2.293051,0 -0.63059,0.0782 -0.11465,0.14228 1.146531,0.14228 1.26118,0 1.77711,-0.064 1.14652,-0.14228 z m 4.06204,-2.062 c -0.11039,-0.11039 -0.97029,-0.34316 -1.91088,-0.51727 l -1.71018,-0.31657 1.85414,0.14812 c 1.78615,0.14268 3.82857,0.85068 2.52618,0.87569 -0.30721,0.006 -0.64888,-0.0796 -0.75926,-0.18997 z m -6.00231,-1.1066 c 0.43656,-0.0841 1.15093,-0.0841 1.5875,0 0.43656,0.0841 0.0794,0.15288 -0.79375,0.15288 -0.87313,0 -1.230321,-0.0688 -0.79375,-0.15288 z"
           id="path108798"
           sodipodi:nodetypes="cssssscsssssssssssssssssssssssssssccssssssssssssccssssssssssssssscsscsssccsssccssssscssccscsssscscsssss" />
        <path
           style="fill:#b2d3e6;stroke-width:0.352778"
           d="m -84.495075,198.98387 c -2.75385,-2.79589 -3.02908,-2.33568 7.7701,-12.9927 6.59164,-6.50487 9.66662,-9.30837 10.20974,-9.30837 0.91837,0 1.36365,-0.59215 1.22908,-1.63448 -0.0605,-0.46843 0.24697,-1.02323 0.81434,-1.46952 l 0.911491,-0.71698 -1.206521,-2.23465 c -1.49924,-2.7768 -1.91938,-4.09269 -2.29766,-7.19638 -0.31049,-2.54745 0.0828,-7.26293 0.68751,-8.2422 0.23183,-0.37546 0.25458,-0.0989 0.0705,0.8567 -0.14951,0.77612 -0.24567,2.76049 -0.21369,4.40973 0.12968,6.68724 4.180441,13.46095 9.848311,16.46839 9.241481,4.90364 20.274031,1.66568 25.369421,-7.44573 1.70846,-3.05501 2.27984,-4.9644 2.64724,-8.84627 l 0.3005,-3.175 -0.10831,4.05694 c -0.12947,4.84955 -0.82059,7.1238 -3.25064,10.69676 -1.91266,2.81224 -4.57539,5.09774 -7.64706,6.56372 -2.8912,1.37984 -4.72462,1.7705 -8.35807,1.7809 -3.356491,0.01 -6.197351,-0.61007 -8.767471,-1.91245 l -1.71414,-0.86863 -0.92849,1.04208 c -0.51067,0.57314 -1.21302,1.04207 -1.56077,1.04207 -0.77407,0 -1.47609,0.65777 -1.48719,1.39347 -0.005,0.30074 -4.174771,4.79337 -9.267181,9.98361 -10.66204,10.86687 -10.2317,10.61136 -13.05103,7.74899 z m 2.69226,-0.37141 c 0.58668,-0.61237 0.8756,-1.21801 0.74428,-1.56023 -0.38753,-1.00988 -1.11551,-0.93003 -2.25687,0.24756 -1.04032,1.07334 -1.08088,1.20217 -0.54659,1.73646 0.7747,0.77469 0.94442,0.73976 2.05918,-0.42379 z m 19.374601,-19.40769 c 2.71697,-2.73419 2.73326,-2.76158 2.02477,-3.40275 -0.69516,-0.62912 -0.73769,-0.62434 -1.59248,0.17869 -0.48304,0.45379 -0.87825,1.00786 -0.87825,1.23125 0,0.49094 -1.567231,2.01934 -1.815781,1.7708 -0.0968,-0.0968 -0.64061,0.31045 -1.20855,0.90492 -1.00437,1.05129 -1.01388,1.09462 -0.34783,1.58382 0.37664,0.27663 0.77351,0.49997 0.88195,0.49631 0.10844,-0.004 1.42971,-1.24703 2.936171,-2.76304 z m 10.49814,-1.32378 c -4.69759,-1.26235 -9.16292,-4.65624 -11.23084,-8.53606 -6.081261,-11.40961 1.33787,-24.99834 14.22146,-26.04774 10.933131,-0.89052 20.221781,9.21076 18.534871,20.15642 -1.54484,10.02382 -11.95285,16.99974 -21.525491,14.42738 z m 7.930881,-0.84579 c 1.51803,-0.38824 3.47809,-1.1267 4.3557,-1.64101 9.46649,-5.54773 11.23142,-18.53734 3.57007,-26.27523 -1.83769,-1.85605 -4.27854,-3.39634 -6.33964,-4.0006 -0.82936,-0.24314 -0.84195,-0.22805 -0.21114,0.25325 0.95629,0.72961 0.33054,0.92699 -1.90552,0.60105 -5.564711,-0.90349 -8.856891,-0.50382 -13.605351,3.95233 -2.42186,2.29049 -4.18276,5.7118 -4.78525,9.2974 -0.24432,1.45405 -0.57201,2.64372 -0.72821,2.64372 -0.397401,0 -0.354801,2.23726 0.0636,3.33764 0.19115,0.50276 0.42081,1.31815 0.51035,1.81196 0.4705,2.59461 4.06435,6.69189 7.4513,8.49507 1.97053,1.0491 5.89921,2.13701 7.950341,2.20157 0.50254,0.0158 2.15573,-0.2889 3.67377,-0.67715 z m 0.0795,-32.31556 c -0.11723,-0.11723 -0.4215,-0.12976 -0.67616,-0.0279 -0.28142,0.11261 -0.19783,0.19621 0.21314,0.21313 0.37188,0.0153 0.58024,-0.0681 0.46302,-0.18528 z m -2.63849,-0.39484 c -0.63059,-0.0783 -1.66246,-0.0783 -2.293051,0 -0.63059,0.0782 -0.11465,0.14228 1.146531,0.14228 1.26118,0 1.77711,-0.064 1.14652,-0.14228 z m 17.57855,12.04385 c 0.0169,-0.41096 0.10052,-0.49455 0.21314,-0.21313 0.1019,0.25466 0.0894,0.55893 -0.0278,0.67616 -0.11722,0.11722 -0.2006,-0.0911 -0.18528,-0.46303 z m -36.705942,-3.1456 c 0,-0.19403 0.15389,-0.5909 0.34198,-0.88194 0.18808,-0.29104 0.34197,-0.37042 0.34197,-0.17639 0,0.19403 -0.15389,0.5909 -0.34197,0.88194 -0.18809,0.29105 -0.34198,0.37042 -0.34198,0.17639 z m 35.466052,-0.42576 c -0.19145,-0.50277 -0.15093,-0.54329 0.19748,-0.19748 0.2411,0.2393 0.34949,0.52396 0.24087,0.63258 -0.10861,0.10861 -0.30587,-0.0872 -0.43835,-0.4351 z m -32.301851,-4.7999 c 0,-0.0607 0.51594,-0.57665 1.14653,-1.14653 l 1.14652,-1.03614 -1.03614,1.14653 c -0.96582,1.06872 -1.25691,1.30868 -1.25691,1.03614 z"
           id="path108796"
           sodipodi:nodetypes="ssssscsssssssscssscscsscssssssssssssssscsssssssssssccsssssssscssccscsscssccssssssssssscss" />
        <path
           style="fill:#b0b1b1;stroke-width:0.352778"
           d="m -84.495075,198.98387 c -2.75385,-2.79589 -3.02908,-2.33568 7.7701,-12.9927 6.59164,-6.50487 9.66662,-9.30837 10.20974,-9.30837 0.91837,0 1.36365,-0.59215 1.22908,-1.63448 -0.0605,-0.46843 0.24697,-1.02323 0.81434,-1.46952 l 0.911491,-0.71698 -1.206521,-2.23465 c -1.49924,-2.7768 -1.91938,-4.09269 -2.29766,-7.19638 -0.31049,-2.54745 0.0828,-7.26293 0.68751,-8.2422 0.23183,-0.37546 0.25458,-0.0989 0.0705,0.8567 -0.14951,0.77612 -0.24567,2.76049 -0.21369,4.40973 0.12968,6.68724 4.180441,13.46095 9.848311,16.46839 9.241481,4.90364 20.274031,1.66568 25.369421,-7.44573 1.70846,-3.05501 2.27984,-4.9644 2.64724,-8.84627 l 0.3005,-3.175 -0.10831,4.05694 c -0.12947,4.84955 -0.82059,7.1238 -3.25064,10.69676 -1.91266,2.81224 -4.57539,5.09774 -7.64706,6.56372 -2.8912,1.37984 -4.72462,1.7705 -8.35807,1.7809 -3.356491,0.01 -6.197351,-0.61007 -8.767471,-1.91245 l -1.71414,-0.86863 -0.92849,1.04208 c -0.51067,0.57314 -1.21302,1.04207 -1.56077,1.04207 -0.77407,0 -1.47609,0.65777 -1.48719,1.39347 -0.005,0.30074 -4.174771,4.79337 -9.267181,9.98361 -10.66204,10.86687 -10.2317,10.61136 -13.05103,7.74899 z m 2.69226,-0.37141 c 0.58668,-0.61237 0.8756,-1.21801 0.74428,-1.56023 -0.38753,-1.00988 -1.11551,-0.93003 -2.25687,0.24756 -1.04032,1.07334 -1.08088,1.20217 -0.54659,1.73646 0.7747,0.77469 0.94442,0.73976 2.05918,-0.42379 z m 19.374601,-19.40769 c 2.71697,-2.73419 2.73326,-2.76158 2.02477,-3.40275 -0.69516,-0.62912 -0.73769,-0.62434 -1.59248,0.17869 -0.48304,0.45379 -0.87825,1.00786 -0.87825,1.23125 0,0.49094 -1.567231,2.01934 -1.815781,1.7708 -0.0968,-0.0968 -0.64061,0.31045 -1.20855,0.90492 -1.00437,1.05129 -1.01388,1.09462 -0.34783,1.58382 0.37664,0.27663 0.77351,0.49997 0.88195,0.49631 0.10844,-0.004 1.42971,-1.24703 2.936171,-2.76304 z m 10.49814,-1.32378 c -4.69759,-1.26235 -9.16292,-4.65624 -11.23084,-8.53606 -6.081261,-11.40961 1.33787,-24.99834 14.22146,-26.04774 10.933131,-0.89052 20.221781,9.21076 18.534871,20.15642 -1.54484,10.02382 -11.95285,16.99974 -21.525491,14.42738 z m 7.930881,-0.84579 c 7.06872,-1.80787 11.75504,-7.16801 12.66529,-14.48634 0.98048,-7.88304 -4.80256,-16.16608 -12.53072,-17.94773 -1.98395,-0.45739 -5.696721,-0.45728 -7.681231,2.2e-4 -7.33777,1.69163 -12.739431,8.70606 -12.739431,16.54302 0,2.24153 1.114971,6.32804 2.259341,8.28075 2.22997,3.80515 6.41957,6.75758 10.96983,7.73048 3.314061,0.70858 3.851521,0.69941 7.056921,-0.1204 z m 15.01954,-20.66655 c 0.0169,-0.41096 0.10052,-0.49455 0.21314,-0.21313 0.1019,0.25466 0.0894,0.55893 -0.0278,0.67616 -0.11722,0.11722 -0.2006,-0.0911 -0.18528,-0.46303 z m -36.705942,-3.1456 c 0,-0.19403 0.15389,-0.5909 0.34198,-0.88194 0.18808,-0.29104 0.34197,-0.37042 0.34197,-0.17639 0,0.19403 -0.15389,0.5909 -0.34197,0.88194 -0.18809,0.29105 -0.34198,0.37042 -0.34198,0.17639 z m 35.466052,-0.42576 c -0.19145,-0.50277 -0.15093,-0.54329 0.19748,-0.19748 0.2411,0.2393 0.34949,0.52396 0.24087,0.63258 -0.10861,0.10861 -0.30587,-0.0872 -0.43835,-0.4351 z m -32.301851,-4.7999 c 0,-0.0607 0.51594,-0.57665 1.14653,-1.14653 l 1.14652,-1.03614 -1.03614,1.14653 c -0.96582,1.06872 -1.25691,1.30868 -1.25691,1.03614 z"
           id="path108794"
           sodipodi:nodetypes="ssssscsssssssscssscscsscssssssssssssssscsssssssssssssscssccssssssssssscss" />
        <path
           style="fill:#5b94d0;stroke-width:0.352778"
           d="m -84.444015,198.95819 c -1.09746,-1.09745 -1.71349,-2.01786 -1.71349,-2.56009 0,-1.12524 18.7012,-19.92464 19.51131,-19.61377 0.63858,0.24504 1.63212,-0.79248 1.39335,-1.45501 -0.0935,-0.25934 0.33792,-0.99551 0.95863,-1.63593 0.723931,-0.7469 0.988271,-1.25111 0.737251,-1.40625 -1.174661,-0.72598 -3.586471,-7.29213 -3.522501,-9.58999 0.0162,-0.58134 0.23709,-0.0376 0.52232,1.28565 1.53506,7.1216 6.875551,12.87122 13.889361,14.95338 2.49623,0.74106 7.429881,0.74106 9.926111,0 6.19539,-1.8392 11.03749,-6.31771 13.24092,-12.24667 0.4451,-1.19765 0.81754,-1.98633 0.82765,-1.75262 0.0378,0.87335 -1.67995,5.05558 -2.78146,6.77213 -1.52368,2.37446 -4.67799,5.24353 -7.30082,6.64065 -5.27647,2.81064 -12.214401,2.90926 -17.465631,0.24826 l -1.79999,-0.91212 -1.10367,1.04122 c -0.60701,0.57268 -1.54023,1.14378 -2.0738,1.26911 -0.70145,0.16476 -0.97014,0.44653 -0.97014,1.01736 0,1.16236 -18.554141,19.65819 -19.720171,19.65819 -0.53642,0 -1.46327,-0.62154 -2.55523,-1.7135 z m 3.0613,-0.0632 c 1.10463,-1.153 1.01525,-1.74614 -0.40524,-2.68931 -0.63164,-0.41939 -0.82766,-0.34463 -1.84297,0.70291 l -1.13616,1.17222 0.7415,0.94267 c 0.94963,1.20726 1.38334,1.18617 2.64287,-0.12849 z m 19.224161,-19.33602 2.78696,-2.7683 -1.04336,-0.9996 -1.04336,-0.9996 -0.88432,0.83078 c -0.48637,0.45693 -0.88432,0.99131 -0.88432,1.18752 0,0.50182 -1.450921,1.98971 -1.940271,1.98971 -0.2234,0 -0.7548,0.37109 -1.18089,0.82464 l -0.7747,0.82463 0.73881,0.93926 c 0.40635,0.51659 0.89625,0.93925 1.08866,0.93925 0.19241,0 1.603971,-1.24573 3.136791,-2.76829 z m 30.520871,-14.5622 c 0.66698,-1.89044 0.65492,-5.61449 -0.0266,-8.23126 -1.69436,-6.50504 -7.24941,-11.6157 -13.5736,-12.48776 -5.092631,-0.70223 -10.105381,0.9064 -13.797961,4.42787 -3.78264,3.60736 -5.234671,7.02724 -5.274201,12.42199 -0.0162,2.21918 -0.12917,3.14144 -0.32798,2.6788 -0.16675,-0.38806 -0.31434,-1.99039 -0.32798,-3.56075 -0.0492,-5.66572 2.513881,-10.38075 7.540151,-13.87078 5.45418,-3.78717 13.364891,-3.88735 19.029761,-0.24099 5.39091,3.47 8.30817,9.31216 7.85586,15.73224 -0.25134,3.56748 -0.50423,4.58611 -1.13856,4.58611 -0.388,0 -0.38065,-0.25998 0.0412,-1.45547 z"
           id="path108790"
           sodipodi:nodetypes="ssssssssssssssscsssssssscssscccsssscsssccsscsssssscc" />
        <path
           style="fill:#8f8f8f;stroke-width:0.352778"
           d="m -84.444015,198.95819 c -1.09746,-1.09745 -1.71349,-2.01786 -1.71349,-2.56009 0,-1.12524 18.7012,-19.92464 19.51131,-19.61377 0.63858,0.24504 1.63212,-0.79248 1.39335,-1.45501 -0.0935,-0.25934 0.33792,-0.99551 0.95863,-1.63593 0.723931,-0.7469 0.988271,-1.25111 0.737251,-1.40625 -1.174661,-0.72598 -3.586471,-7.29213 -3.522501,-9.58999 0.0162,-0.58134 0.23709,-0.0376 0.52232,1.28565 1.53506,7.1216 6.875551,12.87122 13.889361,14.95338 2.49623,0.74106 7.429881,0.74106 9.926111,0 6.19539,-1.8392 11.03749,-6.31771 13.24092,-12.24667 0.4451,-1.19765 0.81754,-1.98633 0.82765,-1.75262 0.0378,0.87335 -1.67995,5.05558 -2.78146,6.77213 -1.52368,2.37446 -4.67799,5.24353 -7.30082,6.64065 -5.27647,2.81064 -12.214401,2.90926 -17.465631,0.24826 l -1.79999,-0.91212 -1.10367,1.04122 c -0.60701,0.57268 -1.54023,1.14378 -2.0738,1.26911 -0.70145,0.16476 -0.97014,0.44653 -0.97014,1.01736 0,1.16236 -18.554141,19.65819 -19.720171,19.65819 -0.53642,0 -1.46327,-0.62154 -2.55523,-1.7135 z m 3.0613,-0.0632 c 1.10463,-1.153 1.01525,-1.74614 -0.40524,-2.68931 -0.63164,-0.41939 -0.82766,-0.34463 -1.84297,0.70291 l -1.13616,1.17222 0.7415,0.94267 c 0.94963,1.20726 1.38334,1.18617 2.64287,-0.12849 z m 19.224161,-19.33602 2.78696,-2.7683 -1.04336,-0.9996 -1.04336,-0.9996 -0.88432,0.83078 c -0.48637,0.45693 -0.88432,0.99131 -0.88432,1.18752 0,0.50182 -1.450921,1.98971 -1.940271,1.98971 -0.2234,0 -0.7548,0.37109 -1.18089,0.82464 l -0.7747,0.82463 0.73881,0.93926 c 0.40635,0.51659 0.89625,0.93925 1.08866,0.93925 0.19241,0 1.603971,-1.24573 3.136791,-2.76829 z m 30.520871,-14.5622 c 0.66698,-1.89044 0.65492,-5.61449 -0.0266,-8.23126 -1.69436,-6.50504 -7.24941,-11.6157 -13.5736,-12.48776 -5.092631,-0.70223 -10.105381,0.9064 -13.797961,4.42787 -3.78264,3.60736 -5.234671,7.02724 -5.274201,12.42199 -0.0162,2.21918 -0.12917,3.14144 -0.32798,2.6788 -0.16675,-0.38806 -0.31434,-1.99039 -0.32798,-3.56075 -0.0492,-5.66572 2.513881,-10.38075 7.540151,-13.87078 5.45418,-3.78717 13.364891,-3.88735 19.029761,-0.24099 5.39091,3.47 8.30817,9.31216 7.85586,15.73224 -0.25134,3.56748 -0.50423,4.58611 -1.13856,4.58611 -0.388,0 -0.38065,-0.25998 0.0412,-1.45547 z"
           id="path108788"
           sodipodi:nodetypes="ssssssssssssssscsssssssscssscccsssscsssccsscsssssscc" />
        <path
           style="fill:#e94d09;stroke-width:0.352778"
           d="m -80.948855,199.45834 1.31774,-1.21335 -1.57276,-1.60887 c -0.86502,-0.88489 -1.76139,-1.60888 -1.99193,-1.60888 -0.23054,0 -0.89857,0.54601 -1.48451,1.21335 -1.03665,1.18068 -1.47719,1.10403 -1.47719,-0.25702 0,-0.69935 18.83174,-19.32234 19.4355,-19.22005 0.78504,0.133 1.7306,-0.73003 1.48918,-1.35919 -0.30996,-0.80774 1.2799,-2.30234 2.158641,-2.02932 0.68221,0.21196 0.69286,0.18376 0.16547,-0.43769 -1.597921,-1.88294 -0.87638,-1.40315 1.20003,0.79795 3.86514,4.09726 8.49751,6.12253 14.003961,6.12253 4.62023,0 8.99376,-1.54865 12.25308,-4.33874 l 1.68164,-1.43956 -1.23472,1.32427 c -1.53578,1.64716 -4.17461,3.1809 -7.05716,4.10176 -2.78646,0.89016 -8.164151,0.96156 -10.958681,0.14549 -2.6211,-0.76542 -5.83527,-2.62886 -7.71736,-4.47419 l -1.56792,-1.53729 -1.02968,1.17274 c -0.895741,1.02019 -0.967131,1.24988 -0.548751,1.76574 0.385191,0.47493 0.387531,0.53678 0.0118,0.31064 -0.303,-0.18235 -0.65514,-0.0168 -0.99427,0.46735 -0.28882,0.41234 -0.68476,0.65104 -0.87987,0.53045 -0.4041,-0.24975 -2.06641,1.18457 -2.06641,1.78299 0,0.21682 0.71681,1.09772 1.5929,1.95754 l 1.59291,1.56332 0.876541,-0.9453 c 0.48209,-0.51992 0.88558,-1.15068 0.89663,-1.40168 0.011,-0.251 0.8424,-1.09137 1.84744,-1.86748 2.2095,-1.70622 2.36578,-1.78213 2.36578,-1.14923 0,0.73543 -1.52029,2.03118 -2.38316,2.03118 -0.83189,0 -1.34941,0.60083 -1.21656,1.41238 0.11167,0.68206 -18.634211,19.40151 -19.428891,19.40151 -0.42132,0 -0.20916,-0.35725 0.7206,-1.21335 z M -33.064443,173.155 c 0.35118,-0.38806 0.71789,-0.70556 0.8149,-0.70556 0.097,0 -0.11094,0.3175 -0.46213,0.70556 -0.35118,0.38805 -0.71789,0.70555 -0.81491,0.70555 -0.097,0 0.11095,-0.3175 0.46214,-0.70555 z m -1.04081,-22.07132 c -1.53473,-2.3423 -4.80852,-4.89543 -7.87299,-6.13993 -0.91825,-0.3729 -1.41708,-0.68666 -1.10852,-0.69724 1.94471,-0.0667 8.12476,4.47945 9.44636,6.94889 0.57734,1.07877 0.26619,1.00398 -0.46485,-0.11172 z m -24.819151,-3.04254 c 0.93341,-0.90981 2.68875,-2.13971 3.90075,-2.73313 2.36051,-1.15575 5.44346,-1.89945 5.75882,-1.3892 0.10485,0.16965 -0.27013,0.30846 -0.83329,0.30846 -2.32957,0 -6.5953,2.00785 -9.26847,4.36261 -0.6902,0.608 -0.49122,0.36106 0.44219,-0.54874 z"
           id="path108782"
           sodipodi:nodetypes="ccssssssssssscsssscssssssscsssssssscssssssssssssssss" />
        <path
           style="fill:#676563;stroke-width:0.352778"
           d="m -80.961635,199.47578 c 1.08313,-0.99261 1.23063,-1.28546 0.8677,-1.72276 -0.36872,-0.44428 0.7391,-1.66358 7.06834,-7.77967 4.96321,-4.79605 7.38609,-7.37033 7.15281,-7.59975 -0.23309,-0.22923 -2.90038,2.11459 -7.86195,6.90852 l -7.50918,7.25546 -0.80384,-0.75517 c -1.07958,-1.01422 -1.3867,-0.96077 -2.63256,0.45818 -1.03665,1.18068 -1.47719,1.10403 -1.47719,-0.25702 0,-0.69935 18.83174,-19.32234 19.4355,-19.22005 0.78504,0.133 1.7306,-0.73003 1.48918,-1.35919 -0.30996,-0.80774 1.2799,-2.30234 2.158641,-2.02932 0.68221,0.21196 0.69286,0.18376 0.16547,-0.43769 -1.597921,-1.88294 -0.87638,-1.40315 1.20003,0.79795 3.86514,4.09726 8.49751,6.12253 14.003961,6.12253 4.62023,0 8.99376,-1.54865 12.25308,-4.33874 l 1.68164,-1.43956 -1.23472,1.32427 c -1.53578,1.64716 -4.17461,3.1809 -7.05716,4.10176 -2.78646,0.89016 -8.164151,0.96156 -10.958681,0.14549 -2.6211,-0.76542 -5.83527,-2.62886 -7.71736,-4.47419 l -1.56792,-1.53729 -1.02968,1.17274 c -0.895741,1.02019 -0.967131,1.24988 -0.548751,1.76574 0.385191,0.47493 0.387531,0.53678 0.0118,0.31064 -0.303,-0.18235 -0.65514,-0.0168 -0.99427,0.46735 -0.28882,0.41234 -0.68476,0.65104 -0.87987,0.53045 -0.4041,-0.24975 -2.06641,1.18457 -2.06641,1.78299 0,0.21682 0.71681,1.09772 1.5929,1.95754 l 1.59291,1.56332 0.876541,-0.9453 c 0.48209,-0.51992 0.88558,-1.15068 0.89663,-1.40168 0.011,-0.251 0.8424,-1.09137 1.84744,-1.86748 2.2095,-1.70622 2.36578,-1.78213 2.36578,-1.14923 0,0.73543 -1.52029,2.03118 -2.38316,2.03118 -0.83189,0 -1.34941,0.60083 -1.21656,1.41238 0.11167,0.68206 -18.634211,19.40151 -19.428891,19.40151 -0.4218,0 -0.21396,-0.35116 0.70782,-1.19591 z M -33.064443,173.155 c 0.35118,-0.38806 0.71789,-0.70556 0.8149,-0.70556 0.097,0 -0.11094,0.3175 -0.46213,0.70556 -0.35118,0.38805 -0.71789,0.70555 -0.81491,0.70555 -0.097,0 0.11095,-0.3175 0.46214,-0.70555 z m -1.04081,-22.07137 c -1.53473,-2.3423 -4.80852,-4.89543 -7.87299,-6.13993 -0.91825,-0.3729 -1.41708,-0.68666 -1.10852,-0.69724 1.94471,-0.0667 8.12476,4.47945 9.44636,6.94889 0.57734,1.07877 0.26619,1.00398 -0.46485,-0.11172 z m -24.819151,-3.04254 c 0.93341,-0.90981 2.68875,-2.13971 3.90075,-2.73313 2.36051,-1.15575 5.44346,-1.89945 5.75882,-1.3892 0.10485,0.16965 -0.27013,0.30846 -0.83329,0.30846 -2.32957,0 -6.5953,2.00785 -9.26847,4.36261 -0.6902,0.608 -0.49122,0.36106 0.44219,-0.54874 z"
           id="path108780"
           sodipodi:nodetypes="ssssscsssssssssscsssscssssssscsssssssssssssssssssssssss" />
        <path
           style="fill:#8b7216;stroke-width:0.352778"
           d="m -79.942755,197.89492 c -0.5723,-0.63238 -0.28203,-0.96484 6.91268,-7.91724 4.96617,-4.79892 7.39057,-7.37466 7.15729,-7.60408 -0.23309,-0.22923 -2.90395,2.11804 -7.87251,6.91872 l -7.51973,7.26564 -1.47299,-1.47299 -1.47299,-1.47299 7.49241,-7.49241 7.49242,-7.49242 2.55554,2.55555 2.55555,2.55554 -7.40209,7.40839 c -4.07115,4.07461 -7.49796,7.40839 -7.61514,7.40839 -0.11719,0 -0.48189,-0.29705 -0.81044,-0.6601 z"
           id="path108778"
           sodipodi:nodetypes="sssscccccccsss" />
        <path
           style="fill:#e52603;stroke-width:0.352778"
           d="m -79.942755,197.89492 c -0.5723,-0.63238 -0.28203,-0.96484 6.91268,-7.91724 4.96617,-4.79892 7.39057,-7.37466 7.15729,-7.60408 -0.23309,-0.22923 -2.90395,2.11804 -7.87251,6.91872 l -7.51973,7.26564 -1.47299,-1.47299 -1.47299,-1.47299 7.49241,-7.49241 7.49242,-7.49242 2.55554,2.55555 2.55555,2.55554 -7.40209,7.40839 c -4.07115,4.07461 -7.49796,7.40839 -7.61514,7.40839 -0.11719,0 -0.48189,-0.29705 -0.81044,-0.6601 z"
           id="path108776"
           sodipodi:nodetypes="sssscccccccsss" />
        <path
           style="fill:#cf2e04;stroke-width:0.352778"
           d="m -79.942755,197.89492 c -0.5723,-0.63238 -0.28203,-0.96484 6.91268,-7.91724 4.96617,-4.79892 7.39057,-7.37466 7.15729,-7.60408 -0.23309,-0.22923 -2.90395,2.11804 -7.87251,6.91872 l -7.51973,7.26564 -1.47299,-1.47299 -1.47299,-1.47299 7.49241,-7.49241 7.49242,-7.49242 2.55554,2.55555 2.55555,2.55554 -7.40209,7.40839 c -4.07115,4.07461 -7.49796,7.40839 -7.61514,7.40839 -0.11719,0 -0.48189,-0.29705 -0.81044,-0.6601 z"
           id="path108774"
           sodipodi:nodetypes="sssscccccccsss" />
        <path
           style="fill:#aa1704;stroke-width:0.352778"
           d="m -79.454735,198.27572 c 0,-0.29047 7.84762,-8.05533 9.70139,-9.59908 l 1.05834,-0.88134 -0.88195,1.00815 c -1.95322,2.23274 -9.36606,9.75275 -9.61319,9.75218 -0.14552,-3.4e-4 -0.26459,-0.1263 -0.26459,-0.27991 z m -3.73623,-3.64001 -1.02627,-1.07648 5.46806,-5.29709 c 3.00743,-2.9134 6.42645,-6.23596 7.59782,-7.38346 l 2.12978,-2.08638 1.398,1.46653 c 0.76891,0.80658 1.19419,1.35112 0.94508,1.21008 -0.29805,-0.16874 -3.02328,2.22268 -7.96957,6.99342 l -7.51663,7.24985 z m 16.25985,-8.78069 c 0.95555,-0.97014 1.81674,-1.76389 1.91375,-1.76389 0.097,0 -0.60542,0.79375 -1.56098,1.76389 -0.95555,0.97014 -1.81674,1.76389 -1.91375,1.76389 -0.097,0 0.60542,-0.79375 1.56098,-1.76389 z"
           id="path108768"
           sodipodi:nodetypes="sscsssccsscsssccsssss" />
      </g>
      <g
         id="g108660"
         transform="matrix(0.09645819,-0.09645819,0.09645819,0.09645819,195.97763,-44.001549)">
        <g
           id="g108670">
          <path
             sodipodi:nodetypes="sssssssssssssscccssssccssscscsssscsssssccsssssssssssssscsssssssssssssssssssssssssssssssssssssssss"
             id="path108664"
             d="m -632.39919,356.78991 c -15.56661,-1.61036 -26.97015,-6.49245 -38.23229,-16.36805 -2.60803,-2.28693 -6.85947,-6.90594 -7.19753,-7.81978 -0.17945,-0.48512 -0.0772,-0.52378 1.38522,-0.52378 0.86843,0 1.57897,-0.1096 1.57897,-0.24356 0,-0.2445 -0.49283,-0.3766 -2.58114,-0.69182 -1.45019,-0.21891 -1.91677,-0.88038 -1.91677,-2.71742 0,-1.01623 -0.0938,-1.38759 -0.33073,-1.30978 -0.1819,0.0597 -0.36841,0.42684 -0.41445,0.8158 -0.21038,1.77709 -1.47533,0.18129 -4.57781,-5.7751 -3.28265,-6.30232 -5.18756,-12.08324 -6.50326,-19.73571 -0.37216,-2.16458 -0.47347,-4.2259 -0.47347,-9.63304 0,-7.50975 0.21587,-9.44866 1.75272,-15.7427 3.17923,-13.02028 11.09013,-25.43353 21.63383,-33.94636 l 2.19523,-1.7724 h 38.32809 38.32809 l 2.32515,1.93612 c 3.81704,3.17839 5.54331,4.87991 8.35638,8.23656 9.50242,11.3386 14.5306,24.49245 14.93103,39.05996 0.18877,6.86758 -0.0337,9.54018 -0.87768,10.54317 -0.59567,0.70792 -0.6111,0.80436 -0.24199,1.51256 1.12329,16.80759 -20.82273,40.23938 -33.20405,47.02353 -8.74424,4.60441 -18.02399,6.96323 -28.17812,7.16259 -2.7649,0.0543 -5.50334,0.0494 -6.08542,-0.0109 z m -42.60186,-34.8816 c -1.95055,-4.41054 -3.68006,-10.50554 -4.50934,-15.89147 -0.62239,-4.04228 -0.6246,-12.18809 -0.004,-16.27187 1.95128,-12.84841 7.35669,-23.7826 16.25487,-32.88079 1.67568,-1.71334 4.21492,-4.02579 5.64276,-5.13878 1.42785,-1.113 2.59608,-2.12219 2.59608,-2.24266 0,-0.12046 -1.83928,-0.21903 -4.0873,-0.21903 h -4.08731 l -1.53509,1.28401 c -0.8443,0.7062 -2.48938,2.28378 -3.65575,3.50573 -7.89521,8.27147 -12.95515,18.41298 -14.85364,29.77077 -0.5961,3.56624 -0.67931,13.54263 -0.14205,17.03325 0.86171,5.59869 2.85255,11.94312 5.27206,16.80104 2.32623,4.67065 4.77629,8.01961 3.1091,4.2498 z m 10.30885,-86.16061 c -0.55881,-0.90417 0.68543,-8.25381 2.05411,-12.13348 2.481,-7.0327 7.84167,-13.92978 14.16543,-18.22536 1.34607,-0.91435 2.4474,-1.82742 2.4474,-2.02903 0,-0.73079 -1.4158,-4.27624 -2.40819,-6.03057 -2.58136,-4.56332 -6.48927,-8.31592 -11.07619,-10.63601 -1.48833,-0.75281 -4.60449,-1.98778 -5.01569,-1.98778 -0.12746,0 -0.81886,0.57488 -1.53643,1.27751 -1.82342,1.78545 -3.40779,2.49285 -5.90731,2.63755 -2.45293,0.14199 -4.15107,-0.34248 -5.91122,-1.68646 -5.48315,-4.18669 -4.476,-12.4749 1.86887,-15.37968 1.30233,-0.59623 1.72083,-0.65662 3.8828,-0.5604 2.05267,0.0914 2.63769,0.225 3.82638,0.87401 2.63639,1.43946 4.46919,4.25033 4.74344,7.27476 l 0.14055,1.55002 2.01576,0.71438 c 7.38227,2.61625 13.48496,7.93201 17.00542,14.81259 0.66873,1.30699 1.42178,3.00991 1.67345,3.78428 0.25167,0.77436 0.60491,1.46446 0.78498,1.53356 0.18007,0.0691 1.24725,-0.18315 2.37151,-0.56055 6.70159,-2.24965 14.12461,-2.52545 21.0038,-0.7804 1.40588,0.35663 2.70543,0.64841 2.8879,0.64841 0.18246,0 0.41026,-0.32742 0.50622,-0.7276 0.27791,-1.15906 0.79628,-2.03223 1.80572,-3.04167 0.71342,-0.71342 0.94031,-1.16024 0.94031,-1.85179 0,-1.34302 1.61119,-3.61499 4.66081,-6.57231 3.76673,-3.65274 7.4742,-5.95707 11.87565,-7.38119 1.01864,-0.3296 1.96297,-0.70136 2.0985,-0.82616 0.13553,-0.12479 0.32825,-0.91373 0.42828,-1.75319 0.60023,-5.03731 5.0468,-8.41821 10.15922,-7.72444 2.86144,0.38831 5.27407,2.12051 6.68546,4.79999 0.6632,1.25906 0.73649,1.66138 0.73667,4.04399 1.9e-4,2.43772 -0.0615,2.75714 -0.78362,4.06092 -1.02857,1.85696 -2.97696,3.57784 -4.85137,4.28488 -1.22132,0.46069 -1.91159,0.54756 -3.62522,0.45626 -2.54503,-0.13559 -4.17035,-0.87258 -5.94207,-2.69437 -0.66838,-0.68727 -1.42227,-1.2129 -1.7396,-1.2129 -0.73447,0 -3.91825,1.08871 -5.42028,1.85349 -3.53711,1.80096 -7.0482,4.77406 -9.37217,7.93609 -1.95089,2.65442 -4.29289,7.53109 -3.89224,8.1047 0.0949,0.13592 1.00604,0.73689 2.02469,1.3355 10.44936,6.14057 17.14472,16.41063 18.40825,28.23657 0.17719,1.65836 0.24897,3.20592 0.15953,3.43901 -0.14807,0.38587 -3.45372,0.42381 -36.9324,0.42381 -26.13767,0 -36.82105,-0.083 -36.94711,-0.28694 z m 13.22408,-3.833 c 0.22868,-0.22868 0.41577,-0.81084 0.41577,-1.29369 0,-2.43705 1.57224,-8.06869 3.10527,-11.12283 3.07341,-6.12292 8.63427,-11.65788 14.67035,-14.602 1.42851,-0.69676 2.5973,-1.35752 2.5973,-1.46836 0,-0.674 -5.40054,0.57246 -8.7281,2.01447 -4.81983,2.0887 -9.74697,6.22748 -12.54995,10.54191 -2.51205,3.86663 -3.76118,7.01216 -4.53844,11.42862 -0.51822,2.94461 -0.49323,4.29464 0.0858,4.63187 0.77513,0.45148 4.45743,0.35462 4.94204,-0.12999 z"
             style="fill:#f80114;stroke-width:0.264583" />
          <path
             sodipodi:nodetypes="sccsssscccssccssssccccsssssssccsssssssssssssssssssssssssssccsscccssssssssssssssssssssssssssssssssssssssssssssscsssssssccssssssssssssssssssssssssssssss"
             id="path108662"
             d="m -632.39919,356.78991 c -15.56661,-1.61036 -26.97015,-6.49245 -38.23229,-16.36805 -4.76987,-4.25819 -9.93493,-8.03495 -14.05424,-18.26544 -3.28265,-6.30232 -5.18756,-12.08324 -6.50326,-19.73571 -0.37216,-2.16458 -0.47347,-4.2259 -0.47347,-9.63304 0,-7.50975 0.21587,-9.44866 1.75272,-15.7427 3.17923,-13.02028 11.09013,-25.43353 21.63383,-33.94636 l 2.19523,-1.7724 h 38.32809 38.32809 l 2.32515,1.93612 c 3.81704,3.17839 5.54331,4.87991 8.35638,8.23656 9.50242,11.3386 14.5306,24.49245 14.93103,39.05996 0.33353,8.53968 -0.69281,14.29165 -1.50616,17.76228 -4.13414,17.58623 -16.46533,32.70646 -32.81756,41.31698 -8.74424,4.60441 -18.02399,6.96323 -28.17812,7.16259 -2.7649,0.0543 -5.50334,0.0494 -6.08542,-0.0109 z m 0,-57.78815 V 249.3957 l -15.39569,-0.0683 -15.39569,-0.0683 -1.53764,1.28612 c -0.84571,0.70738 -2.49194,2.28591 -3.65831,3.50786 -7.89521,8.27147 -12.95515,18.41298 -14.85364,29.77077 -0.5961,3.56624 -0.67931,13.54263 -0.14205,17.03325 2.56842,16.68744 12.13005,30.97822 26.78056,40.02614 4.47642,2.76457 11.04448,5.37768 16.71141,6.64868 2.96191,0.66429 6.31418,1.19081 7.09417,1.11419 0.35123,-0.0345 0.39688,-5.74442 0.39688,-49.64472 z m -28.33074,35.2533 c -2.69264,-0.95603 -4.66982,-2.85761 -5.97714,-5.74864 -0.83439,-1.84514 -0.82698,-5.18495 0.0163,-7.3413 1.64308,-4.20165 6.37905,-6.84215 10.84163,-6.04464 5.10738,0.91274 8.48056,5.18386 8.18099,10.35877 -0.21606,3.73227 -2.31637,6.81882 -5.71905,8.40455 -1.97356,0.91972 -5.32124,1.08899 -7.34271,0.37126 z m -10.56301,-26.09566 c -4.4723,-1.41812 -7.49055,-5.18972 -7.7508,-9.68541 -0.26253,-4.53517 2.04,-8.47904 6.10306,-10.45351 8.75491,-4.25453 18.21708,4.49508 14.75971,13.6482 -1.0857,2.8743 -3.80342,5.3995 -6.81093,6.32842 -1.96292,0.60628 -4.68013,0.67627 -6.30104,0.1623 z m 11.2512,-29.15734 c -2.01381,-0.54116 -3.45979,-1.45294 -4.88417,-3.07979 -1.70183,-1.94374 -2.3554,-3.74551 -2.37599,-6.55022 -0.0146,-1.99377 0.0785,-2.45013 0.82049,-4.02186 1.02595,-2.17311 2.64858,-3.84214 4.72788,-4.86306 1.41974,-0.69708 1.83102,-0.77237 4.21892,-0.77237 2.31211,0 2.83523,0.0888 4.14739,0.7039 6.39945,2.99995 7.76544,11.27991 2.67784,16.23182 -1.18059,1.14909 -2.60981,1.92612 -4.44398,2.41607 -1.67326,0.44697 -3.05283,0.42877 -4.88838,-0.0645 z m 41.93005,69.04398 c 6.38832,-1.0405 14.07125,-3.97296 19.81935,-7.56473 8.18477,-5.11435 14.38277,-11.64225 19.7472,-20.79826 2.85524,-5.16417 3.3807,-6.84989 4.73286,-11.60045 4.37993,-16.32856 1.84291,-32.52237 -7.26674,-46.38347 -2.17418,-3.3082 -6.17882,-7.93679 -9.02738,-10.43392 l -2.288,-2.00573 -15.37219,0.0683 -15.37218,0.0683 -0.0679,49.34479 c -0.0373,27.13963 -0.012,49.49195 0.0564,49.67179 0.13603,0.3579 0.95745,0.29813 5.03855,-0.36655 z m 17.03717,-13.92938 c -2.60673,-1.09938 -4.22361,-2.56937 -5.44331,-4.94878 -0.67845,-1.32353 -0.74594,-1.70658 -0.74594,-4.23333 0,-2.45786 0.0814,-2.95188 0.70648,-4.28532 0.94139,-2.00834 2.75367,-3.76837 4.92895,-4.78685 1.55704,-0.72901 2.05072,-0.83013 4.0547,-0.83044 2.10237,-2.7e-4 2.4391,0.0774 4.2822,0.98828 4.11222,2.03238 6.23962,6.08761 5.48049,10.44689 -0.38048,2.18484 -1.05707,3.50339 -2.67614,5.21532 -1.95768,2.06996 -3.76049,2.86978 -6.70477,2.97457 -2.04888,0.0729 -2.61553,-0.006 -3.88266,-0.54034 z m 10.98565,-26.06882 c -4.35385,-1.50507 -7.17334,-5.17099 -7.44672,-9.68224 -0.10536,-1.7387 -0.0219,-2.45566 0.44664,-3.8362 3.23552,-9.53373 15.92101,-10.26852 20.17926,-1.16885 2.69468,5.75839 -0.5869,12.94081 -6.74855,14.77062 -1.79737,0.53376 -4.75643,0.49542 -6.43063,-0.0833 z m -9.70151,-28.90887 c -2.79443,-0.6586 -5.554,-2.89402 -6.76691,-5.4816 -0.62504,-1.33344 -0.70648,-1.82746 -0.70648,-4.28532 0,-2.5251 0.0678,-2.91066 0.74472,-4.23333 0.98336,-1.92153 2.79588,-3.73669 4.63996,-4.64671 1.98156,-0.97787 5.1101,-1.1947 7.29985,-0.50594 2.87447,0.90413 5.42064,3.40123 6.39729,6.27402 1.82894,5.3797 -1.38507,11.31881 -6.90305,12.75607 -1.71842,0.44759 -3.16692,0.48539 -4.70538,0.12281 z m -64.90182,-43.39136 c -0.55881,-0.90417 0.68543,-8.25381 2.05411,-12.13348 2.481,-7.0327 7.84167,-13.92978 14.16543,-18.22536 1.34607,-0.91435 2.4474,-1.82742 2.4474,-2.02903 0,-0.73079 -1.4158,-4.27624 -2.40819,-6.03057 -2.58136,-4.56332 -6.48927,-8.31592 -11.07619,-10.63601 -1.48833,-0.75281 -4.60449,-1.98778 -5.01569,-1.98778 -0.12746,0 -0.81886,0.57488 -1.53643,1.27751 -1.82342,1.78545 -3.40779,2.49285 -5.90731,2.63755 -2.45293,0.14199 -4.15107,-0.34248 -5.91122,-1.68646 -5.48315,-4.18669 -4.476,-12.4749 1.86887,-15.37968 1.30233,-0.59623 1.72083,-0.65662 3.8828,-0.5604 2.05267,0.0914 2.63769,0.225 3.82638,0.87401 2.63639,1.43946 4.46919,4.25033 4.74344,7.27476 l 0.14055,1.55002 2.01576,0.71438 c 7.38227,2.61625 13.48496,7.93201 17.00542,14.81259 0.66873,1.30699 1.42178,3.00991 1.67345,3.78428 0.25167,0.77436 0.60491,1.46446 0.78498,1.53356 0.18007,0.0691 1.24725,-0.18315 2.37151,-0.56055 6.70159,-2.24965 14.12461,-2.52545 21.0038,-0.7804 1.40588,0.35663 2.70543,0.64841 2.8879,0.64841 0.18246,0 0.41026,-0.32742 0.50622,-0.7276 1.12198,-4.13083 4.34435,-8.75036 7.40684,-11.46577 3.76673,-3.65274 7.4742,-5.95707 11.87565,-7.38119 1.01864,-0.3296 1.96297,-0.70136 2.0985,-0.82616 0.13553,-0.12479 0.32825,-0.91373 0.42828,-1.75319 0.60023,-5.03731 5.0468,-8.41821 10.15922,-7.72444 2.86144,0.38831 5.27407,2.12051 6.68546,4.79999 0.6632,1.25906 0.73649,1.66138 0.73667,4.04399 1.9e-4,2.43772 -0.0615,2.75714 -0.78362,4.06092 -1.02857,1.85696 -2.97696,3.57784 -4.85137,4.28488 -1.22132,0.46069 -1.91159,0.54756 -3.62522,0.45626 -2.54503,-0.13559 -4.17035,-0.87258 -5.94207,-2.69437 -0.66838,-0.68727 -1.42227,-1.2129 -1.7396,-1.2129 -0.73447,0 -3.91825,1.08871 -5.42028,1.85349 -3.53711,1.80096 -7.0482,4.77406 -9.37217,7.93609 -1.95089,2.65442 -4.29289,7.53109 -3.89224,8.1047 0.0949,0.13592 1.00604,0.73689 2.02469,1.3355 10.44936,6.14057 17.14472,16.41063 18.40825,28.23657 0.17719,1.65836 0.24897,3.20592 0.15953,3.43901 -0.14807,0.38587 -3.45372,0.42381 -36.9324,0.42381 -26.13767,0 -36.82105,-0.083 -36.94711,-0.28694 z m 13.22408,-3.833 c 0.22868,-0.22868 0.41577,-0.81084 0.41577,-1.29369 0,-2.43705 1.57224,-8.06869 3.10527,-11.12283 3.07341,-6.12292 8.63427,-11.65788 14.67035,-14.602 1.42851,-0.69676 2.5973,-1.35752 2.5973,-1.46836 0,-0.674 -5.40054,0.57246 -8.7281,2.01447 -4.81983,2.0887 -9.74697,6.22748 -12.54995,10.54191 -2.51205,3.86663 -3.76118,7.01216 -4.53844,11.42862 -0.51822,2.94461 -0.49323,4.29464 0.0858,4.63187 0.77513,0.45148 4.45743,0.35462 4.94204,-0.12999 z"
             style="fill:#16191f;stroke-width:0.264583" />
        </g>
      </g>
    </g>
  </g>
</svg>
